<?xml version="1.0" encoding="utf-8" standalone="no"?>
<!DOCTYPE svg PUBLIC "-//W3C//DTD SVG 1.1//EN"
  "http://www.w3.org/Graphics/SVG/1.1/DTD/svg11.dtd">
<svg xmlns:xlink="http://www.w3.org/1999/xlink" width="297.4464pt" height="324.152355pt" viewBox="0 0 297.4464 324.152355" xmlns="http://www.w3.org/2000/svg" version="1.1">
 <metadata>
  <rdf:RDF xmlns:dc="http://purl.org/dc/elements/1.1/" xmlns:cc="http://creativecommons.org/ns#" xmlns:rdf="http://www.w3.org/1999/02/22-rdf-syntax-ns#">
   <cc:Work>
    <dc:type rdf:resource="http://purl.org/dc/dcmitype/StillImage"/>
    <dc:date>2026-07-17T18:55:11.909901</dc:date>
    <dc:format>image/svg+xml</dc:format>
    <dc:creator>
     <cc:Agent>
      <dc:title>Matplotlib v3.11.0, https://matplotlib.org/</dc:title>
     </cc:Agent>
    </dc:creator>
   </cc:Work>
  </rdf:RDF>
 </metadata>
 <defs>
  <style type="text/css">*{stroke-linejoin: round; stroke-linecap: butt}</style>
 </defs>
 <g id="figure_1">
  <g id="patch_1">
   <path d="M 0 324.152355 
L 297.4464 324.152355 
L 297.4464 0 
L 0 0 
z
" style="fill: #ffffff"/>
  </g>
  <g id="axes_1">
   <g id="matplotlib.axis_1"/>
   <g id="matplotlib.axis_2"/>
   <g id="patch_2">
    <path d="M 146.829302 86.674426 
C 145.400913 86.556997 143.970267 86.468874 142.538265 86.41011 
C 141.106263 86.351347 139.673207 86.321955 138.24 86.321955 
L 138.24 191.153955 
z
" style="fill: #bfc4cb; stroke: #ffffff; stroke-width: 2; stroke-linejoin: miter"/>
   </g>
   <g id="patch_3">
    <path d="M 243.049959 193.30354 
C 243.597008 166.630388 233.941843 140.729142 216.068594 120.922494 
C 198.195346 101.115847 173.418362 88.860323 146.829302 86.674426 
L 138.24 191.153955 
z
" style="fill: #e0b63e; stroke: #ffffff; stroke-width: 2; stroke-linejoin: miter"/>
   </g>
   <g id="patch_4">
    <path d="M 138.24 86.321955 
C 117.600151 86.321955 97.412826 92.417471 80.222082 103.840328 
C 63.031339 115.263186 49.590982 131.5125 41.5948 150.540491 
C 33.598618 169.568482 31.397239 190.540781 35.268087 210.814406 
C 39.138935 231.088032 48.912275 249.773995 63.356445 264.517444 
C 77.800616 279.260893 96.282248 289.415335 116.472239 293.70108 
C 136.66223 297.986826 157.675259 296.215948 176.863211 288.611617 
C 196.051163 281.007286 212.572656 267.902948 224.345609 250.950044 
C 236.118563 233.997141 242.626738 213.939049 243.049959 193.30354 
L 138.24 191.153955 
z
" style="fill: #4c72b0; stroke: #ffffff; stroke-width: 2; stroke-linejoin: miter"/>
   </g>
   <g id="line2d_1">
    <path d="M 142.538265 86.41011 
L 142.538265 75.838755 
L 177.02784 75.838755 
" style="fill: none; stroke: #7b828a; stroke-width: 1.2; stroke-linecap: round"/>
   </g>
   <g id="text_1">
    <text style="font-weight: 700; font-size: 12px; font-family: 'Arial'; text-anchor: start; fill: #22262b" x="182.26944" y="72.654304" transform="rotate(-0 182.26944 72.654304)">Tie</text>
   </g>
   <g id="text_2">
    <text style="font-size: 11px; font-family: 'Arial'; text-anchor: start; fill: #22262b" x="182.26944" y="89.168635" transform="rotate(-0 182.26944 89.168635)">1.3%</text>
   </g>
   <g id="text_3">
    <text style="font-weight: 700; font-size: 12px; font-family: 'Arial'; fill: #22262b" transform="translate(162.277782 133.010434)">Chatbot</text>
    <text style="font-weight: 700; font-size: 12px; font-family: 'Arial'; fill: #22262b" transform="translate(173.994657 146.070981)">Win</text>
   </g>
   <g id="text_4">
    <text style="font-size: 11px; font-family: 'Arial'; text-anchor: middle; fill: #22262b" x="184.937157" y="166.538238" transform="rotate(-0 184.937157 166.538238)">24.0%</text>
   </g>
   <g id="text_5">
    <text style="font-weight: 700; font-size: 12px; font-family: 'Arial'; fill: #22262b" transform="translate(71.312367 219.167404)">Eubiota</text>
    <text style="font-weight: 700; font-size: 12px; font-family: 'Arial'; fill: #22262b" transform="translate(82.367367 232.227951)">Win</text>
   </g>
   <g id="text_6">
    <text style="font-size: 11px; font-family: 'Arial'; text-anchor: middle; fill: #22262b" x="93.309867" y="252.695208" transform="rotate(-0 93.309867 252.695208)">74.7%</text>
   </g>
   <g id="text_7">
    <text style="font-weight: 700; font-size: 13px; font-family: 'Arial'; text-anchor: start; fill: #22262b" x="7.2" y="16.664355" transform="rotate(-0 7.2 16.664355)">Wins by system (both batches)</text>
   </g>
  </g>
 </g>
</svg>
