<?xml version="1.0" encoding="utf-8" standalone="no"?>
<!DOCTYPE svg PUBLIC "-//W3C//DTD SVG 1.1//EN"
  "http://www.w3.org/Graphics/SVG/1.1/DTD/svg11.dtd">
<svg xmlns:xlink="http://www.w3.org/1999/xlink" width="639.215402pt" height="366.393107pt" viewBox="0 0 639.215402 366.393107" xmlns="http://www.w3.org/2000/svg" version="1.1">
 <metadata>
  <rdf:RDF xmlns:dc="http://purl.org/dc/elements/1.1/" xmlns:cc="http://creativecommons.org/ns#" xmlns:rdf="http://www.w3.org/1999/02/22-rdf-syntax-ns#">
   <cc:Work>
    <dc:type rdf:resource="http://purl.org/dc/dcmitype/StillImage"/>
    <dc:date>2026-07-16T00:25:56.525301</dc:date>
    <dc:format>image/svg+xml</dc:format>
    <dc:creator>
     <cc:Agent>
      <dc:title>Matplotlib v3.11.0, https://matplotlib.org/</dc:title>
     </cc:Agent>
    </dc:creator>
   </cc:Work>
  </rdf:RDF>
 </metadata>
 <defs>
  <style type="text/css">*{stroke-linejoin: round; stroke-linecap: butt}</style>
 </defs>
 <g id="figure_1">
  <g id="patch_1">
   <path d="M 0 366.393107 
L 639.215402 366.393107 
L 639.215402 0 
L 0 0 
z
" style="fill: #ffffff"/>
  </g>
  <g id="axes_1">
   <g id="patch_2">
    <path d="M 7.2 342.308342 
L 487.08 342.308342 
L 487.08 26.300342 
L 7.2 26.300342 
z
" style="fill: #ffffff"/>
   </g>
   <g id="matplotlib.axis_1">
    <g id="xtick_1">
     <g id="line2d_1">
      <path d="M 36.297182 342.308342 
L 36.297182 26.300342 
" clip-path="url(#p183db6367a)" style="fill: none; stroke: #edeff2; stroke-linecap: square"/>
     </g>
     <g id="line2d_2"/>
    </g>
    <g id="xtick_2">
     <g id="line2d_3">
      <path d="M 113.111005 342.308342 
L 113.111005 26.300342 
" clip-path="url(#p183db6367a)" style="fill: none; stroke: #edeff2; stroke-linecap: square"/>
     </g>
     <g id="line2d_4"/>
    </g>
    <g id="xtick_3">
     <g id="line2d_5">
      <path d="M 189.924827 342.308342 
L 189.924827 26.300342 
" clip-path="url(#p183db6367a)" style="fill: none; stroke: #edeff2; stroke-linecap: square"/>
     </g>
     <g id="line2d_6"/>
    </g>
    <g id="xtick_4">
     <g id="line2d_7">
      <path d="M 266.73865 342.308342 
L 266.73865 26.300342 
" clip-path="url(#p183db6367a)" style="fill: none; stroke: #edeff2; stroke-linecap: square"/>
     </g>
     <g id="line2d_8"/>
    </g>
    <g id="xtick_5">
     <g id="line2d_9">
      <path d="M 343.552473 342.308342 
L 343.552473 26.300342 
" clip-path="url(#p183db6367a)" style="fill: none; stroke: #edeff2; stroke-linecap: square"/>
     </g>
     <g id="line2d_10"/>
    </g>
    <g id="xtick_6">
     <g id="line2d_11">
      <path d="M 420.366296 342.308342 
L 420.366296 26.300342 
" clip-path="url(#p183db6367a)" style="fill: none; stroke: #edeff2; stroke-linecap: square"/>
     </g>
     <g id="line2d_12"/>
    </g>
    <g id="text_1">
     <text style="font-size: 10px; font-family: 'Arial'; text-anchor: middle; fill: #3a3f45" x="247.14" y="357.088615" transform="rotate(-0 247.14 357.088615)">← similar reasons are placed near each other →</text>
    </g>
   </g>
   <g id="matplotlib.axis_2">
    <g id="ytick_1">
     <g id="line2d_13">
      <path d="M 7.2 307.544744 
L 487.08 307.544744 
" clip-path="url(#p183db6367a)" style="fill: none; stroke: #edeff2; stroke-linecap: square"/>
     </g>
     <g id="line2d_14"/>
    </g>
    <g id="ytick_2">
     <g id="line2d_15">
      <path d="M 7.2 251.416408 
L 487.08 251.416408 
" clip-path="url(#p183db6367a)" style="fill: none; stroke: #edeff2; stroke-linecap: square"/>
     </g>
     <g id="line2d_16"/>
    </g>
    <g id="ytick_3">
     <g id="line2d_17">
      <path d="M 7.2 195.288072 
L 487.08 195.288072 
" clip-path="url(#p183db6367a)" style="fill: none; stroke: #edeff2; stroke-linecap: square"/>
     </g>
     <g id="line2d_18"/>
    </g>
    <g id="ytick_4">
     <g id="line2d_19">
      <path d="M 7.2 139.159736 
L 487.08 139.159736 
" clip-path="url(#p183db6367a)" style="fill: none; stroke: #edeff2; stroke-linecap: square"/>
     </g>
     <g id="line2d_20"/>
    </g>
    <g id="ytick_5">
     <g id="line2d_21">
      <path d="M 7.2 83.0314 
L 487.08 83.0314 
" clip-path="url(#p183db6367a)" style="fill: none; stroke: #edeff2; stroke-linecap: square"/>
     </g>
     <g id="line2d_22"/>
    </g>
    <g id="ytick_6">
     <g id="line2d_23">
      <path d="M 7.2 26.903063 
L 487.08 26.903063 
" clip-path="url(#p183db6367a)" style="fill: none; stroke: #edeff2; stroke-linecap: square"/>
     </g>
     <g id="line2d_24"/>
    </g>
   </g>
   <g id="PathCollection_1">
    <path d="M 179.070733 253.516772 
C 179.919797 253.516772 180.7342 253.179435 181.334579 252.579056 
C 181.934958 251.978677 182.272295 251.164274 182.272295 250.315209 
C 182.272295 249.466145 181.934958 248.651742 181.334579 248.051363 
C 180.7342 247.450984 179.919797 247.113647 179.070733 247.113647 
C 178.221668 247.113647 177.407265 247.450984 176.806886 248.051363 
C 176.206507 248.651742 175.86917 249.466145 175.86917 250.315209 
C 175.86917 251.164274 176.206507 251.978677 176.806886 252.579056 
C 177.407265 253.179435 178.221668 253.516772 179.070733 253.516772 
z
" clip-path="url(#p183db6367a)" style="fill: #4c72b0; fill-opacity: 0.78; stroke: #ffffff; stroke-opacity: 0.78; stroke-width: 0.8"/>
    <path d="M 408.944286 277.741811 
C 409.793351 277.741811 410.607754 277.404474 411.208133 276.804095 
C 411.808512 276.203716 412.145848 275.389313 412.145848 274.540249 
C 412.145848 273.691185 411.808512 272.876782 411.208133 272.276403 
C 410.607754 271.676024 409.793351 271.338687 408.944286 271.338687 
C 408.095222 271.338687 407.280819 271.676024 406.68044 272.276403 
C 406.080061 272.876782 405.742724 273.691185 405.742724 274.540249 
C 405.742724 275.389313 406.080061 276.203716 406.68044 276.804095 
C 407.280819 277.404474 408.095222 277.741811 408.944286 277.741811 
z
" clip-path="url(#p183db6367a)" style="fill: #4c72b0; fill-opacity: 0.78; stroke: #ffffff; stroke-opacity: 0.78; stroke-width: 0.8"/>
    <path d="M 386.945218 190.412731 
C 387.794282 190.412731 388.608685 190.075395 389.209064 189.475016 
C 389.809443 188.874637 390.14678 188.060234 390.14678 187.211169 
C 390.14678 186.362105 389.809443 185.547702 389.209064 184.947323 
C 388.608685 184.346944 387.794282 184.009607 386.945218 184.009607 
C 386.096154 184.009607 385.281751 184.346944 384.681372 184.947323 
C 384.080993 185.547702 383.743656 186.362105 383.743656 187.211169 
C 383.743656 188.060234 384.080993 188.874637 384.681372 189.475016 
C 385.281751 190.075395 386.096154 190.412731 386.945218 190.412731 
z
" clip-path="url(#p183db6367a)" style="fill: #4c72b0; fill-opacity: 0.78; stroke: #ffffff; stroke-opacity: 0.78; stroke-width: 0.8"/>
    <path d="M 386.830173 229.951991 
C 387.679237 229.951991 388.49364 229.614655 389.094019 229.014276 
C 389.694398 228.413897 390.031735 227.599493 390.031735 226.750429 
C 390.031735 225.901365 389.694398 225.086962 389.094019 224.486583 
C 388.49364 223.886204 387.679237 223.548867 386.830173 223.548867 
C 385.981109 223.548867 385.166706 223.886204 384.566326 224.486583 
C 383.965947 225.086962 383.628611 225.901365 383.628611 226.750429 
C 383.628611 227.599493 383.965947 228.413897 384.566326 229.014276 
C 385.166706 229.614655 385.981109 229.951991 386.830173 229.951991 
z
" clip-path="url(#p183db6367a)" style="fill: #4c72b0; fill-opacity: 0.78; stroke: #ffffff; stroke-opacity: 0.78; stroke-width: 0.8"/>
    <path d="M 413.124341 200.321566 
C 413.973405 200.321566 414.787808 199.984229 415.388187 199.38385 
C 415.988566 198.783471 416.325903 197.969068 416.325903 197.120004 
C 416.325903 196.27094 415.988566 195.456537 415.388187 194.856158 
C 414.787808 194.255779 413.973405 193.918442 413.124341 193.918442 
C 412.275277 193.918442 411.460874 194.255779 410.860494 194.856158 
C 410.260115 195.456537 409.922779 196.27094 409.922779 197.120004 
C 409.922779 197.969068 410.260115 198.783471 410.860494 199.38385 
C 411.460874 199.984229 412.275277 200.321566 413.124341 200.321566 
z
" clip-path="url(#p183db6367a)" style="fill: #4c72b0; fill-opacity: 0.78; stroke: #ffffff; stroke-opacity: 0.78; stroke-width: 0.8"/>
    <path d="M 364.505599 217.39938 
C 365.354663 217.39938 366.169066 217.062044 366.769445 216.461664 
C 367.369824 215.861285 367.707161 215.046882 367.707161 214.197818 
C 367.707161 213.348754 367.369824 212.534351 366.769445 211.933972 
C 366.169066 211.333593 365.354663 210.996256 364.505599 210.996256 
C 363.656535 210.996256 362.842132 211.333593 362.241752 211.933972 
C 361.641373 212.534351 361.304037 213.348754 361.304037 214.197818 
C 361.304037 215.046882 361.641373 215.861285 362.241752 216.461664 
C 362.842132 217.062044 363.656535 217.39938 364.505599 217.39938 
z
" clip-path="url(#p183db6367a)" style="fill: #4c72b0; fill-opacity: 0.78; stroke: #ffffff; stroke-opacity: 0.78; stroke-width: 0.8"/>
    <path d="M 348.454414 188.079037 
C 349.303479 188.079037 350.117882 187.7417 350.718261 187.141321 
C 351.31864 186.540942 351.655976 185.726539 351.655976 184.877475 
C 351.655976 184.02841 351.31864 183.214007 350.718261 182.613628 
C 350.117882 182.013249 349.303479 181.675913 348.454414 181.675913 
C 347.60535 181.675913 346.790947 182.013249 346.190568 182.613628 
C 345.590189 183.214007 345.252852 184.02841 345.252852 184.877475 
C 345.252852 185.726539 345.590189 186.540942 346.190568 187.141321 
C 346.790947 187.7417 347.60535 188.079037 348.454414 188.079037 
z
" clip-path="url(#p183db6367a)" style="fill: #4c72b0; fill-opacity: 0.78; stroke: #ffffff; stroke-opacity: 0.78; stroke-width: 0.8"/>
    <path d="M 425.920829 316.150619 
C 426.769893 316.150619 427.584296 315.813282 428.184675 315.212903 
C 428.785055 314.612524 429.122391 313.798121 429.122391 312.949057 
C 429.122391 312.099993 428.785055 311.28559 428.184675 310.685211 
C 427.584296 310.084832 426.769893 309.747495 425.920829 309.747495 
C 425.071765 309.747495 424.257362 310.084832 423.656983 310.685211 
C 423.056604 311.28559 422.719267 312.099993 422.719267 312.949057 
C 422.719267 313.798121 423.056604 314.612524 423.656983 315.212903 
C 424.257362 315.813282 425.071765 316.150619 425.920829 316.150619 
z
" clip-path="url(#p183db6367a)" style="fill: #4c72b0; fill-opacity: 0.78; stroke: #ffffff; stroke-opacity: 0.78; stroke-width: 0.8"/>
    <path d="M 369.080809 227.876812 
C 369.929873 227.876812 370.744276 227.539475 371.344655 226.939096 
C 371.945034 226.338717 372.282371 225.524314 372.282371 224.675249 
C 372.282371 223.826185 371.945034 223.011782 371.344655 222.411403 
C 370.744276 221.811024 369.929873 221.473687 369.080809 221.473687 
C 368.231744 221.473687 367.417341 221.811024 366.816962 222.411403 
C 366.216583 223.011782 365.879247 223.826185 365.879247 224.675249 
C 365.879247 225.524314 366.216583 226.338717 366.816962 226.939096 
C 367.417341 227.539475 368.231744 227.876812 369.080809 227.876812 
z
" clip-path="url(#p183db6367a)" style="fill: #4c72b0; fill-opacity: 0.78; stroke: #ffffff; stroke-opacity: 0.78; stroke-width: 0.8"/>
    <path d="M 463.287295 204.428727 
C 464.136359 204.428727 464.950762 204.091391 465.551141 203.491012 
C 466.15152 202.890633 466.488857 202.07623 466.488857 201.227165 
C 466.488857 200.378101 466.15152 199.563698 465.551141 198.963319 
C 464.950762 198.36294 464.136359 198.025603 463.287295 198.025603 
C 462.43823 198.025603 461.623827 198.36294 461.023448 198.963319 
C 460.423069 199.563698 460.085732 200.378101 460.085732 201.227165 
C 460.085732 202.07623 460.423069 202.890633 461.023448 203.491012 
C 461.623827 204.091391 462.43823 204.428727 463.287295 204.428727 
z
" clip-path="url(#p183db6367a)" style="fill: #4c72b0; fill-opacity: 0.78; stroke: #ffffff; stroke-opacity: 0.78; stroke-width: 0.8"/>
    <path d="M 427.128616 211.464129 
C 427.97768 211.464129 428.792083 211.126792 429.392462 210.526413 
C 429.992841 209.926034 430.330178 209.111631 430.330178 208.262566 
C 430.330178 207.413502 429.992841 206.599099 429.392462 205.99872 
C 428.792083 205.398341 427.97768 205.061004 427.128616 205.061004 
C 426.279551 205.061004 425.465148 205.398341 424.864769 205.99872 
C 424.26439 206.599099 423.927054 207.413502 423.927054 208.262566 
C 423.927054 209.111631 424.26439 209.926034 424.864769 210.526413 
C 425.465148 211.126792 426.279551 211.464129 427.128616 211.464129 
z
" clip-path="url(#p183db6367a)" style="fill: #4c72b0; fill-opacity: 0.78; stroke: #ffffff; stroke-opacity: 0.78; stroke-width: 0.8"/>
    <path d="M 371.508801 277.178126 
C 372.357865 277.178126 373.172268 276.840789 373.772647 276.24041 
C 374.373026 275.640031 374.710363 274.825628 374.710363 273.976564 
C 374.710363 273.1275 374.373026 272.313097 373.772647 271.712718 
C 373.172268 271.112339 372.357865 270.775002 371.508801 270.775002 
C 370.659736 270.775002 369.845333 271.112339 369.244954 271.712718 
C 368.644575 272.313097 368.307239 273.1275 368.307239 273.976564 
C 368.307239 274.825628 368.644575 275.640031 369.244954 276.24041 
C 369.845333 276.840789 370.659736 277.178126 371.508801 277.178126 
z
" clip-path="url(#p183db6367a)" style="fill: #4c72b0; fill-opacity: 0.78; stroke: #ffffff; stroke-opacity: 0.78; stroke-width: 0.8"/>
    <path d="M 334.24222 129.517539 
C 335.091284 129.517539 335.905687 129.180202 336.506066 128.579823 
C 337.106445 127.979444 337.443782 127.165041 337.443782 126.315977 
C 337.443782 125.466913 337.106445 124.652509 336.506066 124.05213 
C 335.905687 123.451751 335.091284 123.114415 334.24222 123.114415 
C 333.393156 123.114415 332.578753 123.451751 331.978374 124.05213 
C 331.377995 124.652509 331.040658 125.466913 331.040658 126.315977 
C 331.040658 127.165041 331.377995 127.979444 331.978374 128.579823 
C 332.578753 129.180202 333.393156 129.517539 334.24222 129.517539 
z
" clip-path="url(#p183db6367a)" style="fill: #4c72b0; fill-opacity: 0.78; stroke: #ffffff; stroke-opacity: 0.78; stroke-width: 0.8"/>
    <path d="M 250.856646 201.620702 
C 251.70571 201.620702 252.520113 201.283365 253.120492 200.682986 
C 253.720871 200.082607 254.058208 199.268204 254.058208 198.41914 
C 254.058208 197.570076 253.720871 196.755673 253.120492 196.155294 
C 252.520113 195.554915 251.70571 195.217578 250.856646 195.217578 
C 250.007581 195.217578 249.193178 195.554915 248.592799 196.155294 
C 247.99242 196.755673 247.655083 197.570076 247.655083 198.41914 
C 247.655083 199.268204 247.99242 200.082607 248.592799 200.682986 
C 249.193178 201.283365 250.007581 201.620702 250.856646 201.620702 
z
" clip-path="url(#p183db6367a)" style="fill: #4c72b0; fill-opacity: 0.78; stroke: #ffffff; stroke-opacity: 0.78; stroke-width: 0.8"/>
    <path d="M 341.831848 54.491556 
C 344.901796 54.491556 347.84642 53.271853 350.017201 51.101072 
C 352.187982 48.930291 353.407685 45.985667 353.407685 42.915719 
C 353.407685 39.845771 352.187982 36.901147 350.017201 34.730366 
C 347.84642 32.559585 344.901796 31.339882 341.831848 31.339882 
C 338.761901 31.339882 335.817277 32.559585 333.646496 34.730366 
C 331.475715 36.901147 330.256012 39.845771 330.256012 42.915719 
C 330.256012 45.985667 331.475715 48.930291 333.646496 51.101072 
C 335.817277 53.271853 338.761901 54.491556 341.831848 54.491556 
z
" clip-path="url(#p183db6367a)" style="fill: #4c72b0; fill-opacity: 0.78; stroke: #ffffff; stroke-opacity: 0.78; stroke-width: 0.8"/>
    <path d="M 198.020197 209.353509 
C 198.869261 209.353509 199.683664 209.016173 200.284043 208.415794 
C 200.884422 207.815414 201.221759 207.001011 201.221759 206.151947 
C 201.221759 205.302883 200.884422 204.48848 200.284043 203.888101 
C 199.683664 203.287722 198.869261 202.950385 198.020197 202.950385 
C 197.171133 202.950385 196.35673 203.287722 195.756351 203.888101 
C 195.155972 204.48848 194.818635 205.302883 194.818635 206.151947 
C 194.818635 207.001011 195.155972 207.815414 195.756351 208.415794 
C 196.35673 209.016173 197.171133 209.353509 198.020197 209.353509 
z
" clip-path="url(#p183db6367a)" style="fill: #4c72b0; fill-opacity: 0.78; stroke: #ffffff; stroke-opacity: 0.78; stroke-width: 0.8"/>
    <path d="M 111.034087 240.53788 
C 111.883151 240.53788 112.697554 240.200543 113.297933 239.600164 
C 113.898312 238.999785 114.235649 238.185382 114.235649 237.336318 
C 114.235649 236.487254 113.898312 235.672851 113.297933 235.072471 
C 112.697554 234.472092 111.883151 234.134756 111.034087 234.134756 
C 110.185022 234.134756 109.370619 234.472092 108.77024 235.072471 
C 108.169861 235.672851 107.832524 236.487254 107.832524 237.336318 
C 107.832524 238.185382 108.169861 238.999785 108.77024 239.600164 
C 109.370619 240.200543 110.185022 240.53788 111.034087 240.53788 
z
" clip-path="url(#p183db6367a)" style="fill: #4c72b0; fill-opacity: 0.78; stroke: #ffffff; stroke-opacity: 0.78; stroke-width: 0.8"/>
    <path d="M 73.692253 203.714392 
C 74.541318 203.714392 75.355721 203.377055 75.9561 202.776676 
C 76.556479 202.176297 76.893815 201.361894 76.893815 200.51283 
C 76.893815 199.663766 76.556479 198.849363 75.9561 198.248984 
C 75.355721 197.648605 74.541318 197.311268 73.692253 197.311268 
C 72.843189 197.311268 72.028786 197.648605 71.428407 198.248984 
C 70.828028 198.849363 70.490691 199.663766 70.490691 200.51283 
C 70.490691 201.361894 70.828028 202.176297 71.428407 202.776676 
C 72.028786 203.377055 72.843189 203.714392 73.692253 203.714392 
z
" clip-path="url(#p183db6367a)" style="fill: #4c72b0; fill-opacity: 0.78; stroke: #ffffff; stroke-opacity: 0.78; stroke-width: 0.8"/>
    <path d="M 126.471877 234.918089 
C 127.320942 234.918089 128.135345 234.580752 128.735724 233.980373 
C 129.336103 233.379994 129.67344 232.565591 129.67344 231.716527 
C 129.67344 230.867462 129.336103 230.053059 128.735724 229.45268 
C 128.135345 228.852301 127.320942 228.514965 126.471877 228.514965 
C 125.622813 228.514965 124.80841 228.852301 124.208031 229.45268 
C 123.607652 230.053059 123.270315 230.867462 123.270315 231.716527 
C 123.270315 232.565591 123.607652 233.379994 124.208031 233.980373 
C 124.80841 234.580752 125.622813 234.918089 126.471877 234.918089 
z
" clip-path="url(#p183db6367a)" style="fill: #4c72b0; fill-opacity: 0.78; stroke: #ffffff; stroke-opacity: 0.78; stroke-width: 0.8"/>
    <path d="M 186.557655 217.861397 
C 187.406719 217.861397 188.221122 217.524061 188.821501 216.923681 
C 189.42188 216.323302 189.759217 215.508899 189.759217 214.659835 
C 189.759217 213.810771 189.42188 212.996368 188.821501 212.395989 
C 188.221122 211.79561 187.406719 211.458273 186.557655 211.458273 
C 185.70859 211.458273 184.894187 211.79561 184.293808 212.395989 
C 183.693429 212.996368 183.356092 213.810771 183.356092 214.659835 
C 183.356092 215.508899 183.693429 216.323302 184.293808 216.923681 
C 184.894187 217.524061 185.70859 217.861397 186.557655 217.861397 
z
" clip-path="url(#p183db6367a)" style="fill: #4c72b0; fill-opacity: 0.78; stroke: #ffffff; stroke-opacity: 0.78; stroke-width: 0.8"/>
    <path d="M 373.048285 188.172364 
C 373.897349 188.172364 374.711752 187.835027 375.312131 187.234648 
C 375.912511 186.634269 376.249847 185.819866 376.249847 184.970802 
C 376.249847 184.121738 375.912511 183.307335 375.312131 182.706956 
C 374.711752 182.106576 373.897349 181.76924 373.048285 181.76924 
C 372.199221 181.76924 371.384818 182.106576 370.784439 182.706956 
C 370.18406 183.307335 369.846723 184.121738 369.846723 184.970802 
C 369.846723 185.819866 370.18406 186.634269 370.784439 187.234648 
C 371.384818 187.835027 372.199221 188.172364 373.048285 188.172364 
z
" clip-path="url(#p183db6367a)" style="fill: #4c72b0; fill-opacity: 0.78; stroke: #ffffff; stroke-opacity: 0.78; stroke-width: 0.8"/>
    <path d="M 196.706516 227.961997 
C 197.555581 227.961997 198.369984 227.62466 198.970363 227.024281 
C 199.570742 226.423902 199.908079 225.609499 199.908079 224.760434 
C 199.908079 223.91137 199.570742 223.096967 198.970363 222.496588 
C 198.369984 221.896209 197.555581 221.558872 196.706516 221.558872 
C 195.857452 221.558872 195.043049 221.896209 194.44267 222.496588 
C 193.842291 223.096967 193.504954 223.91137 193.504954 224.760434 
C 193.504954 225.609499 193.842291 226.423902 194.44267 227.024281 
C 195.043049 227.62466 195.857452 227.961997 196.706516 227.961997 
z
" clip-path="url(#p183db6367a)" style="fill: #4c72b0; fill-opacity: 0.78; stroke: #ffffff; stroke-opacity: 0.78; stroke-width: 0.8"/>
    <path d="M 125.041315 168.875999 
C 125.890379 168.875999 126.704782 168.538662 127.305161 167.938283 
C 127.90554 167.337904 128.242877 166.523501 128.242877 165.674437 
C 128.242877 164.825373 127.90554 164.01097 127.305161 163.410591 
C 126.704782 162.810212 125.890379 162.472875 125.041315 162.472875 
C 124.19225 162.472875 123.377847 162.810212 122.777468 163.410591 
C 122.177089 164.01097 121.839752 164.825373 121.839752 165.674437 
C 121.839752 166.523501 122.177089 167.337904 122.777468 167.938283 
C 123.377847 168.538662 124.19225 168.875999 125.041315 168.875999 
z
" clip-path="url(#p183db6367a)" style="fill: #4c72b0; fill-opacity: 0.78; stroke: #ffffff; stroke-opacity: 0.78; stroke-width: 0.8"/>
    <path d="M 118.504658 231.750611 
C 119.353722 231.750611 120.168125 231.413274 120.768504 230.812895 
C 121.368883 230.212516 121.70622 229.398113 121.70622 228.549048 
C 121.70622 227.699984 121.368883 226.885581 120.768504 226.285202 
C 120.168125 225.684823 119.353722 225.347486 118.504658 225.347486 
C 117.655594 225.347486 116.841191 225.684823 116.240811 226.285202 
C 115.640432 226.885581 115.303096 227.699984 115.303096 228.549048 
C 115.303096 229.398113 115.640432 230.212516 116.240811 230.812895 
C 116.841191 231.413274 117.655594 231.750611 118.504658 231.750611 
z
" clip-path="url(#p183db6367a)" style="fill: #4c72b0; fill-opacity: 0.78; stroke: #ffffff; stroke-opacity: 0.78; stroke-width: 0.8"/>
    <path d="M 427.356119 175.519589 
C 428.205184 175.519589 429.019587 175.182253 429.619966 174.581873 
C 430.220345 173.981494 430.557681 173.167091 430.557681 172.318027 
C 430.557681 171.468963 430.220345 170.65456 429.619966 170.054181 
C 429.019587 169.453802 428.205184 169.116465 427.356119 169.116465 
C 426.507055 169.116465 425.692652 169.453802 425.092273 170.054181 
C 424.491894 170.65456 424.154557 171.468963 424.154557 172.318027 
C 424.154557 173.167091 424.491894 173.981494 425.092273 174.581873 
C 425.692652 175.182253 426.507055 175.519589 427.356119 175.519589 
z
" clip-path="url(#p183db6367a)" style="fill: #4c72b0; fill-opacity: 0.78; stroke: #ffffff; stroke-opacity: 0.78; stroke-width: 0.8"/>
    <path d="M 160.546441 242.255724 
C 161.395505 242.255724 162.209908 241.918387 162.810287 241.318008 
C 163.410666 240.717629 163.748003 239.903226 163.748003 239.054162 
C 163.748003 238.205097 163.410666 237.390694 162.810287 236.790315 
C 162.209908 236.189936 161.395505 235.8526 160.546441 235.8526 
C 159.697377 235.8526 158.882974 236.189936 158.282595 236.790315 
C 157.682216 237.390694 157.344879 238.205097 157.344879 239.054162 
C 157.344879 239.903226 157.682216 240.717629 158.282595 241.318008 
C 158.882974 241.918387 159.697377 242.255724 160.546441 242.255724 
z
" clip-path="url(#p183db6367a)" style="fill: #4c72b0; fill-opacity: 0.78; stroke: #ffffff; stroke-opacity: 0.78; stroke-width: 0.8"/>
    <path d="M 125.068282 238.033155 
C 125.917346 238.033155 126.731749 237.695819 127.332128 237.09544 
C 127.932507 236.495061 128.269844 235.680658 128.269844 234.831593 
C 128.269844 233.982529 127.932507 233.168126 127.332128 232.567747 
C 126.731749 231.967368 125.917346 231.630031 125.068282 231.630031 
C 124.219217 231.630031 123.404814 231.967368 122.804435 232.567747 
C 122.204056 233.168126 121.86672 233.982529 121.86672 234.831593 
C 121.86672 235.680658 122.204056 236.495061 122.804435 237.09544 
C 123.404814 237.695819 124.219217 238.033155 125.068282 238.033155 
z
" clip-path="url(#p183db6367a)" style="fill: #4c72b0; fill-opacity: 0.78; stroke: #ffffff; stroke-opacity: 0.78; stroke-width: 0.8"/>
    <path d="M 346.466773 113.332332 
C 347.315837 113.332332 348.13024 112.994995 348.730619 112.394616 
C 349.330998 111.794237 349.668335 110.979834 349.668335 110.13077 
C 349.668335 109.281705 349.330998 108.467302 348.730619 107.866923 
C 348.13024 107.266544 347.315837 106.929207 346.466773 106.929207 
C 345.617709 106.929207 344.803306 107.266544 344.202927 107.866923 
C 343.602548 108.467302 343.265211 109.281705 343.265211 110.13077 
C 343.265211 110.979834 343.602548 111.794237 344.202927 112.394616 
C 344.803306 112.994995 345.617709 113.332332 346.466773 113.332332 
z
" clip-path="url(#p183db6367a)" style="fill: #4c72b0; fill-opacity: 0.78; stroke: #ffffff; stroke-opacity: 0.78; stroke-width: 0.8"/>
    <path d="M 361.490665 90.093057 
C 364.847868 90.093057 368.068021 88.759226 370.441922 86.385325 
C 372.815823 84.011424 374.149654 80.791271 374.149654 77.434068 
C 374.149654 74.076865 372.815823 70.856712 370.441922 68.482811 
C 368.068021 66.10891 364.847868 64.775079 361.490665 64.775079 
C 358.133462 64.775079 354.913309 66.10891 352.539408 68.482811 
C 350.165507 70.856712 348.831676 74.076865 348.831676 77.434068 
C 348.831676 80.791271 350.165507 84.011424 352.539408 86.385325 
C 354.913309 88.759226 358.133462 90.093057 361.490665 90.093057 
z
" clip-path="url(#p183db6367a)" style="fill: #4c72b0; fill-opacity: 0.78; stroke: #ffffff; stroke-opacity: 0.78; stroke-width: 0.8"/>
    <path d="M 462.076337 255.790664 
C 462.925402 255.790664 463.739805 255.453327 464.340184 254.852948 
C 464.940563 254.252569 465.2779 253.438166 465.2779 252.589102 
C 465.2779 251.740038 464.940563 250.925635 464.340184 250.325256 
C 463.739805 249.724877 462.925402 249.38754 462.076337 249.38754 
C 461.227273 249.38754 460.41287 249.724877 459.812491 250.325256 
C 459.212112 250.925635 458.874775 251.740038 458.874775 252.589102 
C 458.874775 253.438166 459.212112 254.252569 459.812491 254.852948 
C 460.41287 255.453327 461.227273 255.790664 462.076337 255.790664 
z
" clip-path="url(#p183db6367a)" style="fill: #4c72b0; fill-opacity: 0.78; stroke: #ffffff; stroke-opacity: 0.78; stroke-width: 0.8"/>
    <path d="M 337.696777 43.865904 
C 338.545842 43.865904 339.360245 43.528567 339.960624 42.928188 
C 340.561003 42.327809 340.89834 41.513406 340.89834 40.664342 
C 340.89834 39.815278 340.561003 39.000875 339.960624 38.400496 
C 339.360245 37.800116 338.545842 37.46278 337.696777 37.46278 
C 336.847713 37.46278 336.03331 37.800116 335.432931 38.400496 
C 334.832552 39.000875 334.495215 39.815278 334.495215 40.664342 
C 334.495215 41.513406 334.832552 42.327809 335.432931 42.928188 
C 336.03331 43.528567 336.847713 43.865904 337.696777 43.865904 
z
" clip-path="url(#p183db6367a)" style="fill: #4c72b0; fill-opacity: 0.78; stroke: #ffffff; stroke-opacity: 0.78; stroke-width: 0.8"/>
    <path d="M 445.68158 242.939318 
C 447.962943 242.939318 450.151175 242.032923 451.764342 240.419756 
C 453.37751 238.806588 454.283905 236.618357 454.283905 234.336993 
C 454.283905 232.05563 453.37751 229.867398 451.764342 228.254231 
C 450.151175 226.641063 447.962943 225.734668 445.68158 225.734668 
C 443.400216 225.734668 441.211985 226.641063 439.598817 228.254231 
C 437.98565 229.867398 437.079254 232.05563 437.079254 234.336993 
C 437.079254 236.618357 437.98565 238.806588 439.598817 240.419756 
C 441.211985 242.032923 443.400216 242.939318 445.68158 242.939318 
z
" clip-path="url(#p183db6367a)" style="fill: #4c72b0; fill-opacity: 0.78; stroke: #ffffff; stroke-opacity: 0.78; stroke-width: 0.8"/>
    <path d="M 465.267273 288.969062 
C 467.170463 288.969062 468.99596 288.212916 470.341719 286.867157 
C 471.687477 285.521399 472.443623 283.695902 472.443623 281.792711 
C 472.443623 279.889521 471.687477 278.064024 470.341719 276.718266 
C 468.99596 275.372507 467.170463 274.616361 465.267273 274.616361 
C 463.364082 274.616361 461.538586 275.372507 460.192827 276.718266 
C 458.847068 278.064024 458.090923 279.889521 458.090923 281.792711 
C 458.090923 283.695902 458.847068 285.521399 460.192827 286.867157 
C 461.538586 288.212916 463.364082 288.969062 465.267273 288.969062 
z
" clip-path="url(#p183db6367a)" style="fill: #4c72b0; fill-opacity: 0.78; stroke: #ffffff; stroke-opacity: 0.78; stroke-width: 0.8"/>
    <path d="M 341.283177 172.782864 
C 342.132241 172.782864 342.946644 172.445527 343.547023 171.845148 
C 344.147403 171.244769 344.484739 170.430366 344.484739 169.581302 
C 344.484739 168.732238 344.147403 167.917835 343.547023 167.317456 
C 342.946644 166.717077 342.132241 166.37974 341.283177 166.37974 
C 340.434113 166.37974 339.61971 166.717077 339.019331 167.317456 
C 338.418952 167.917835 338.081615 168.732238 338.081615 169.581302 
C 338.081615 170.430366 338.418952 171.244769 339.019331 171.845148 
C 339.61971 172.445527 340.434113 172.782864 341.283177 172.782864 
z
" clip-path="url(#p183db6367a)" style="fill: #4c72b0; fill-opacity: 0.78; stroke: #ffffff; stroke-opacity: 0.78; stroke-width: 0.8"/>
    <path d="M 323.492956 274.517175 
C 324.34202 274.517175 325.156423 274.179838 325.756802 273.579459 
C 326.357181 272.97908 326.694518 272.164677 326.694518 271.315613 
C 326.694518 270.466549 326.357181 269.652145 325.756802 269.051766 
C 325.156423 268.451387 324.34202 268.114051 323.492956 268.114051 
C 322.643892 268.114051 321.829489 268.451387 321.22911 269.051766 
C 320.628731 269.652145 320.291394 270.466549 320.291394 271.315613 
C 320.291394 272.164677 320.628731 272.97908 321.22911 273.579459 
C 321.829489 274.179838 322.643892 274.517175 323.492956 274.517175 
z
" clip-path="url(#p183db6367a)" style="fill: #4c72b0; fill-opacity: 0.78; stroke: #ffffff; stroke-opacity: 0.78; stroke-width: 0.8"/>
    <path d="M 433.789772 196.817074 
C 434.638836 196.817074 435.453239 196.479737 436.053618 195.879358 
C 436.653998 195.278979 436.991334 194.464576 436.991334 193.615511 
C 436.991334 192.766447 436.653998 191.952044 436.053618 191.351665 
C 435.453239 190.751286 434.638836 190.413949 433.789772 190.413949 
C 432.940708 190.413949 432.126305 190.751286 431.525926 191.351665 
C 430.925547 191.952044 430.58821 192.766447 430.58821 193.615511 
C 430.58821 194.464576 430.925547 195.278979 431.525926 195.879358 
C 432.126305 196.479737 432.940708 196.817074 433.789772 196.817074 
z
" clip-path="url(#p183db6367a)" style="fill: #4c72b0; fill-opacity: 0.78; stroke: #ffffff; stroke-opacity: 0.78; stroke-width: 0.8"/>
    <path d="M 429.22998 190.894159 
C 430.079044 190.894159 430.893447 190.556822 431.493827 189.956443 
C 432.094206 189.356064 432.431542 188.541661 432.431542 187.692596 
C 432.431542 186.843532 432.094206 186.029129 431.493827 185.42875 
C 430.893447 184.828371 430.079044 184.491034 429.22998 184.491034 
C 428.380916 184.491034 427.566513 184.828371 426.966134 185.42875 
C 426.365755 186.029129 426.028418 186.843532 426.028418 187.692596 
C 426.028418 188.541661 426.365755 189.356064 426.966134 189.956443 
C 427.566513 190.556822 428.380916 190.894159 429.22998 190.894159 
z
" clip-path="url(#p183db6367a)" style="fill: #4c72b0; fill-opacity: 0.78; stroke: #ffffff; stroke-opacity: 0.78; stroke-width: 0.8"/>
    <path d="M 187.207773 199.357392 
C 188.056837 199.357392 188.87124 199.020055 189.471619 198.419676 
C 190.071998 197.819297 190.409335 197.004894 190.409335 196.15583 
C 190.409335 195.306765 190.071998 194.492362 189.471619 193.891983 
C 188.87124 193.291604 188.056837 192.954267 187.207773 192.954267 
C 186.358709 192.954267 185.544306 193.291604 184.943927 193.891983 
C 184.343548 194.492362 184.006211 195.306765 184.006211 196.15583 
C 184.006211 197.004894 184.343548 197.819297 184.943927 198.419676 
C 185.544306 199.020055 186.358709 199.357392 187.207773 199.357392 
z
" clip-path="url(#p183db6367a)" style="fill: #4c72b0; fill-opacity: 0.78; stroke: #ffffff; stroke-opacity: 0.78; stroke-width: 0.8"/>
    <path d="M 291.948433 247.235565 
C 292.797497 247.235565 293.6119 246.898228 294.212279 246.297849 
C 294.812658 245.69747 295.149995 244.883067 295.149995 244.034003 
C 295.149995 243.184939 294.812658 242.370536 294.212279 241.770156 
C 293.6119 241.169777 292.797497 240.832441 291.948433 240.832441 
C 291.099368 240.832441 290.284965 241.169777 289.684586 241.770156 
C 289.084207 242.370536 288.746871 243.184939 288.746871 244.034003 
C 288.746871 244.883067 289.084207 245.69747 289.684586 246.297849 
C 290.284965 246.898228 291.099368 247.235565 291.948433 247.235565 
z
" clip-path="url(#p183db6367a)" style="fill: #4c72b0; fill-opacity: 0.78; stroke: #ffffff; stroke-opacity: 0.78; stroke-width: 0.8"/>
    <path d="M 306.055551 255.386845 
C 306.904615 255.386845 307.719018 255.049508 308.319397 254.449129 
C 308.919776 253.84875 309.257113 253.034347 309.257113 252.185282 
C 309.257113 251.336218 308.919776 250.521815 308.319397 249.921436 
C 307.719018 249.321057 306.904615 248.98372 306.055551 248.98372 
C 305.206487 248.98372 304.392084 249.321057 303.791705 249.921436 
C 303.191326 250.521815 302.853989 251.336218 302.853989 252.185282 
C 302.853989 253.034347 303.191326 253.84875 303.791705 254.449129 
C 304.392084 255.049508 305.206487 255.386845 306.055551 255.386845 
z
" clip-path="url(#p183db6367a)" style="fill: #4c72b0; fill-opacity: 0.78; stroke: #ffffff; stroke-opacity: 0.78; stroke-width: 0.8"/>
    <path d="M 176.032998 292.885519 
C 176.882063 292.885519 177.696466 292.548183 178.296845 291.947803 
C 178.897224 291.347424 179.23456 290.533021 179.23456 289.683957 
C 179.23456 288.834893 178.897224 288.02049 178.296845 287.420111 
C 177.696466 286.819732 176.882063 286.482395 176.032998 286.482395 
C 175.183934 286.482395 174.369531 286.819732 173.769152 287.420111 
C 173.168773 288.02049 172.831436 288.834893 172.831436 289.683957 
C 172.831436 290.533021 173.168773 291.347424 173.769152 291.947803 
C 174.369531 292.548183 175.183934 292.885519 176.032998 292.885519 
z
" clip-path="url(#p183db6367a)" style="fill: #4c72b0; fill-opacity: 0.78; stroke: #ffffff; stroke-opacity: 0.78; stroke-width: 0.8"/>
    <path d="M 130.083722 186.356393 
C 130.932786 186.356393 131.747189 186.019056 132.347568 185.418677 
C 132.947947 184.818298 133.285284 184.003895 133.285284 183.154831 
C 133.285284 182.305767 132.947947 181.491364 132.347568 180.890985 
C 131.747189 180.290606 130.932786 179.953269 130.083722 179.953269 
C 129.234658 179.953269 128.420255 180.290606 127.819876 180.890985 
C 127.219497 181.491364 126.88216 182.305767 126.88216 183.154831 
C 126.88216 184.003895 127.219497 184.818298 127.819876 185.418677 
C 128.420255 186.019056 129.234658 186.356393 130.083722 186.356393 
z
" clip-path="url(#p183db6367a)" style="fill: #4c72b0; fill-opacity: 0.78; stroke: #ffffff; stroke-opacity: 0.78; stroke-width: 0.8"/>
    <path d="M 289.661069 269.270496 
C 290.510134 269.270496 291.324537 268.933159 291.924916 268.33278 
C 292.525295 267.732401 292.862632 266.917998 292.862632 266.068934 
C 292.862632 265.21987 292.525295 264.405466 291.924916 263.805087 
C 291.324537 263.204708 290.510134 262.867372 289.661069 262.867372 
C 288.812005 262.867372 287.997602 263.204708 287.397223 263.805087 
C 286.796844 264.405466 286.459507 265.21987 286.459507 266.068934 
C 286.459507 266.917998 286.796844 267.732401 287.397223 268.33278 
C 287.997602 268.933159 288.812005 269.270496 289.661069 269.270496 
z
" clip-path="url(#p183db6367a)" style="fill: #4c72b0; fill-opacity: 0.78; stroke: #ffffff; stroke-opacity: 0.78; stroke-width: 0.8"/>
    <path d="M 166.546949 176.360515 
C 167.396013 176.360515 168.210416 176.023178 168.810795 175.422799 
C 169.411174 174.82242 169.748511 174.008017 169.748511 173.158952 
C 169.748511 172.309888 169.411174 171.495485 168.810795 170.895106 
C 168.210416 170.294727 167.396013 169.95739 166.546949 169.95739 
C 165.697885 169.95739 164.883481 170.294727 164.283102 170.895106 
C 163.682723 171.495485 163.345387 172.309888 163.345387 173.158952 
C 163.345387 174.008017 163.682723 174.82242 164.283102 175.422799 
C 164.883481 176.023178 165.697885 176.360515 166.546949 176.360515 
z
" clip-path="url(#p183db6367a)" style="fill: #4c72b0; fill-opacity: 0.78; stroke: #ffffff; stroke-opacity: 0.78; stroke-width: 0.8"/>
    <path d="M 263.455778 288.128974 
C 264.304842 288.128974 265.119245 287.791637 265.719624 287.191258 
C 266.320003 286.590879 266.65734 285.776476 266.65734 284.927412 
C 266.65734 284.078348 266.320003 283.263945 265.719624 282.663566 
C 265.119245 282.063187 264.304842 281.72585 263.455778 281.72585 
C 262.606713 281.72585 261.79231 282.063187 261.191931 282.663566 
C 260.591552 283.263945 260.254215 284.078348 260.254215 284.927412 
C 260.254215 285.776476 260.591552 286.590879 261.191931 287.191258 
C 261.79231 287.791637 262.606713 288.128974 263.455778 288.128974 
z
" clip-path="url(#p183db6367a)" style="fill: #4c72b0; fill-opacity: 0.78; stroke: #ffffff; stroke-opacity: 0.78; stroke-width: 0.8"/>
    <path d="M 142.315675 211.87428 
C 143.164739 211.87428 143.979142 211.536943 144.579521 210.936564 
C 145.1799 210.336185 145.517237 209.521782 145.517237 208.672718 
C 145.517237 207.823653 145.1799 207.00925 144.579521 206.408871 
C 143.979142 205.808492 143.164739 205.471155 142.315675 205.471155 
C 141.466611 205.471155 140.652208 205.808492 140.051829 206.408871 
C 139.451449 207.00925 139.114113 207.823653 139.114113 208.672718 
C 139.114113 209.521782 139.451449 210.336185 140.051829 210.936564 
C 140.652208 211.536943 141.466611 211.87428 142.315675 211.87428 
z
" clip-path="url(#p183db6367a)" style="fill: #4c72b0; fill-opacity: 0.78; stroke: #ffffff; stroke-opacity: 0.78; stroke-width: 0.8"/>
    <path d="M 172.373555 120.112392 
C 173.222619 120.112392 174.037022 119.775055 174.637401 119.174676 
C 175.23778 118.574297 175.575117 117.759894 175.575117 116.910829 
C 175.575117 116.061765 175.23778 115.247362 174.637401 114.646983 
C 174.037022 114.046604 173.222619 113.709267 172.373555 113.709267 
C 171.524491 113.709267 170.710088 114.046604 170.109709 114.646983 
C 169.50933 115.247362 169.171993 116.061765 169.171993 116.910829 
C 169.171993 117.759894 169.50933 118.574297 170.109709 119.174676 
C 170.710088 119.775055 171.524491 120.112392 172.373555 120.112392 
z
" clip-path="url(#p183db6367a)" style="fill: #4c72b0; fill-opacity: 0.78; stroke: #ffffff; stroke-opacity: 0.78; stroke-width: 0.8"/>
    <path d="M 155.015512 228.382494 
C 155.864576 228.382494 156.678979 228.045157 157.279358 227.444778 
C 157.879737 226.844399 158.217074 226.029996 158.217074 225.180932 
C 158.217074 224.331867 157.879737 223.517464 157.279358 222.917085 
C 156.678979 222.316706 155.864576 221.979369 155.015512 221.979369 
C 154.166448 221.979369 153.352045 222.316706 152.751666 222.917085 
C 152.151287 223.517464 151.81395 224.331867 151.81395 225.180932 
C 151.81395 226.029996 152.151287 226.844399 152.751666 227.444778 
C 153.352045 228.045157 154.166448 228.382494 155.015512 228.382494 
z
" clip-path="url(#p183db6367a)" style="fill: #4c72b0; fill-opacity: 0.78; stroke: #ffffff; stroke-opacity: 0.78; stroke-width: 0.8"/>
    <path d="M 344.668096 126.320488 
C 347.60635 126.320488 350.424657 125.153107 352.502316 123.075448 
C 354.579975 120.997788 355.747356 118.179482 355.747356 115.241228 
C 355.747356 112.302974 354.579975 109.484667 352.502316 107.407008 
C 350.424657 105.329349 347.60635 104.161968 344.668096 104.161968 
C 341.729842 104.161968 338.911536 105.329349 336.833876 107.407008 
C 334.756217 109.484667 333.588836 112.302974 333.588836 115.241228 
C 333.588836 118.179482 334.756217 120.997788 336.833876 123.075448 
C 338.911536 125.153107 341.729842 126.320488 344.668096 126.320488 
z
" clip-path="url(#p183db6367a)" style="fill: #4c72b0; fill-opacity: 0.78; stroke: #ffffff; stroke-opacity: 0.78; stroke-width: 0.8"/>
    <path d="M 450.572944 280.821888 
C 451.422008 280.821888 452.236411 280.484551 452.83679 279.884172 
C 453.437169 279.283793 453.774506 278.46939 453.774506 277.620326 
C 453.774506 276.771262 453.437169 275.956859 452.83679 275.35648 
C 452.236411 274.7561 451.422008 274.418764 450.572944 274.418764 
C 449.72388 274.418764 448.909477 274.7561 448.309097 275.35648 
C 447.708718 275.956859 447.371382 276.771262 447.371382 277.620326 
C 447.371382 278.46939 447.708718 279.283793 448.309097 279.884172 
C 448.909477 280.484551 449.72388 280.821888 450.572944 280.821888 
z
" clip-path="url(#p183db6367a)" style="fill: #4c72b0; fill-opacity: 0.78; stroke: #ffffff; stroke-opacity: 0.78; stroke-width: 0.8"/>
    <path d="M 455.710652 169.859971 
C 458.315859 169.859971 460.814714 168.824912 462.656874 166.982752 
C 464.499033 165.140592 465.534093 162.641737 465.534093 160.03653 
C 465.534093 157.431323 464.499033 154.932468 462.656874 153.090308 
C 460.814714 151.248148 458.315859 150.213089 455.710652 150.213089 
C 453.105445 150.213089 450.606589 151.248148 448.76443 153.090308 
C 446.92227 154.932468 445.887211 157.431323 445.887211 160.03653 
C 445.887211 162.641737 446.92227 165.140592 448.76443 166.982752 
C 450.606589 168.824912 453.105445 169.859971 455.710652 169.859971 
z
" clip-path="url(#p183db6367a)" style="fill: #4c72b0; fill-opacity: 0.78; stroke: #ffffff; stroke-opacity: 0.78; stroke-width: 0.8"/>
    <path d="M 439.834725 235.485801 
C 440.683789 235.485801 441.498192 235.148464 442.098571 234.548085 
C 442.698951 233.947706 443.036287 233.133303 443.036287 232.284239 
C 443.036287 231.435175 442.698951 230.620771 442.098571 230.020392 
C 441.498192 229.420013 440.683789 229.082677 439.834725 229.082677 
C 438.985661 229.082677 438.171258 229.420013 437.570879 230.020392 
C 436.9705 230.620771 436.633163 231.435175 436.633163 232.284239 
C 436.633163 233.133303 436.9705 233.947706 437.570879 234.548085 
C 438.171258 235.148464 438.985661 235.485801 439.834725 235.485801 
z
" clip-path="url(#p183db6367a)" style="fill: #4c72b0; fill-opacity: 0.78; stroke: #ffffff; stroke-opacity: 0.78; stroke-width: 0.8"/>
    <path d="M 345.110301 220.735968 
C 345.959365 220.735968 346.773768 220.398631 347.374147 219.798252 
C 347.974526 219.197873 348.311863 218.38347 348.311863 217.534406 
C 348.311863 216.685341 347.974526 215.870938 347.374147 215.270559 
C 346.773768 214.67018 345.959365 214.332844 345.110301 214.332844 
C 344.261237 214.332844 343.446834 214.67018 342.846455 215.270559 
C 342.246076 215.870938 341.908739 216.685341 341.908739 217.534406 
C 341.908739 218.38347 342.246076 219.197873 342.846455 219.798252 
C 343.446834 220.398631 344.261237 220.735968 345.110301 220.735968 
z
" clip-path="url(#p183db6367a)" style="fill: #4c72b0; fill-opacity: 0.78; stroke: #ffffff; stroke-opacity: 0.78; stroke-width: 0.8"/>
    <path d="M 222.196807 198.938232 
C 223.045871 198.938232 223.860274 198.600895 224.460653 198.000516 
C 225.061032 197.400137 225.398369 196.585734 225.398369 195.73667 
C 225.398369 194.887606 225.061032 194.073203 224.460653 193.472823 
C 223.860274 192.872444 223.045871 192.535108 222.196807 192.535108 
C 221.347743 192.535108 220.53334 192.872444 219.932961 193.472823 
C 219.332582 194.073203 218.995245 194.887606 218.995245 195.73667 
C 218.995245 196.585734 219.332582 197.400137 219.932961 198.000516 
C 220.53334 198.600895 221.347743 198.938232 222.196807 198.938232 
z
" clip-path="url(#p183db6367a)" style="fill: #4c72b0; fill-opacity: 0.78; stroke: #ffffff; stroke-opacity: 0.78; stroke-width: 0.8"/>
    <path d="M 185.991064 165.536731 
C 186.840129 165.536731 187.654532 165.199394 188.254911 164.599015 
C 188.85529 163.998636 189.192626 163.184233 189.192626 162.335169 
C 189.192626 161.486105 188.85529 160.671702 188.254911 160.071323 
C 187.654532 159.470944 186.840129 159.133607 185.991064 159.133607 
C 185.142 159.133607 184.327597 159.470944 183.727218 160.071323 
C 183.126839 160.671702 182.789502 161.486105 182.789502 162.335169 
C 182.789502 163.184233 183.126839 163.998636 183.727218 164.599015 
C 184.327597 165.199394 185.142 165.536731 185.991064 165.536731 
z
" clip-path="url(#p183db6367a)" style="fill: #4c72b0; fill-opacity: 0.78; stroke: #ffffff; stroke-opacity: 0.78; stroke-width: 0.8"/>
    <path d="M 335.321209 65.300408 
C 336.170273 65.300408 336.984676 64.963071 337.585055 64.362692 
C 338.185434 63.762313 338.522771 62.94791 338.522771 62.098846 
C 338.522771 61.249782 338.185434 60.435379 337.585055 59.835 
C 336.984676 59.23462 336.170273 58.897284 335.321209 58.897284 
C 334.472145 58.897284 333.657742 59.23462 333.057363 59.835 
C 332.456983 60.435379 332.119647 61.249782 332.119647 62.098846 
C 332.119647 62.94791 332.456983 63.762313 333.057363 64.362692 
C 333.657742 64.963071 334.472145 65.300408 335.321209 65.300408 
z
" clip-path="url(#p183db6367a)" style="fill: #4c72b0; fill-opacity: 0.78; stroke: #ffffff; stroke-opacity: 0.78; stroke-width: 0.8"/>
    <path d="M 308.708234 304.0009 
C 309.557298 304.0009 310.371701 303.663563 310.97208 303.063184 
C 311.572459 302.462805 311.909796 301.648402 311.909796 300.799337 
C 311.909796 299.950273 311.572459 299.13587 310.97208 298.535491 
C 310.371701 297.935112 309.557298 297.597775 308.708234 297.597775 
C 307.85917 297.597775 307.044767 297.935112 306.444388 298.535491 
C 305.844009 299.13587 305.506672 299.950273 305.506672 300.799337 
C 305.506672 301.648402 305.844009 302.462805 306.444388 303.063184 
C 307.044767 303.663563 307.85917 304.0009 308.708234 304.0009 
z
" clip-path="url(#p183db6367a)" style="fill: #4c72b0; fill-opacity: 0.78; stroke: #ffffff; stroke-opacity: 0.78; stroke-width: 0.8"/>
    <path d="M 392.092472 227.798236 
C 392.941536 227.798236 393.755939 227.460899 394.356319 226.86052 
C 394.956698 226.260141 395.294034 225.445738 395.294034 224.596674 
C 395.294034 223.74761 394.956698 222.933207 394.356319 222.332828 
C 393.755939 221.732449 392.941536 221.395112 392.092472 221.395112 
C 391.243408 221.395112 390.429005 221.732449 389.828626 222.332828 
C 389.228247 222.933207 388.89091 223.74761 388.89091 224.596674 
C 388.89091 225.445738 389.228247 226.260141 389.828626 226.86052 
C 390.429005 227.460899 391.243408 227.798236 392.092472 227.798236 
z
" clip-path="url(#p183db6367a)" style="fill: #4c72b0; fill-opacity: 0.78; stroke: #ffffff; stroke-opacity: 0.78; stroke-width: 0.8"/>
    <path d="M 161.471073 222.728566 
C 162.320137 222.728566 163.13454 222.391229 163.734919 221.79085 
C 164.335298 221.190471 164.672635 220.376068 164.672635 219.527004 
C 164.672635 218.67794 164.335298 217.863536 163.734919 217.263157 
C 163.13454 216.662778 162.320137 216.325442 161.471073 216.325442 
C 160.622008 216.325442 159.807605 216.662778 159.207226 217.263157 
C 158.606847 217.863536 158.269511 218.67794 158.269511 219.527004 
C 158.269511 220.376068 158.606847 221.190471 159.207226 221.79085 
C 159.807605 222.391229 160.622008 222.728566 161.471073 222.728566 
z
" clip-path="url(#p183db6367a)" style="fill: #4c72b0; fill-opacity: 0.78; stroke: #ffffff; stroke-opacity: 0.78; stroke-width: 0.8"/>
   </g>
   <g id="PathCollection_2">
    <path d="M 323.103152 87.176017 
C 323.952216 87.176017 324.766619 86.838681 325.366998 86.238302 
C 325.967377 85.637922 326.304714 84.823519 326.304714 83.974455 
C 326.304714 83.125391 325.967377 82.310988 325.366998 81.710609 
C 324.766619 81.11023 323.952216 80.772893 323.103152 80.772893 
C 322.254087 80.772893 321.439684 81.11023 320.839305 81.710609 
C 320.238926 82.310988 319.90159 83.125391 319.90159 83.974455 
C 319.90159 84.823519 320.238926 85.637922 320.839305 86.238302 
C 321.439684 86.838681 322.254087 87.176017 323.103152 87.176017 
z
" clip-path="url(#p183db6367a)" style="fill: #e0b63e; fill-opacity: 0.78; stroke: #ffffff; stroke-opacity: 0.78; stroke-width: 0.8"/>
    <path d="M 320.127364 218.005764 
C 320.976428 218.005764 321.790831 217.668428 322.39121 217.068049 
C 322.991589 216.46767 323.328926 215.653266 323.328926 214.804202 
C 323.328926 213.955138 322.991589 213.140735 322.39121 212.540356 
C 321.790831 211.939977 320.976428 211.60264 320.127364 211.60264 
C 319.2783 211.60264 318.463897 211.939977 317.863518 212.540356 
C 317.263139 213.140735 316.925802 213.955138 316.925802 214.804202 
C 316.925802 215.653266 317.263139 216.46767 317.863518 217.068049 
C 318.463897 217.668428 319.2783 218.005764 320.127364 218.005764 
z
" clip-path="url(#p183db6367a)" style="fill: #e0b63e; fill-opacity: 0.78; stroke: #ffffff; stroke-opacity: 0.78; stroke-width: 0.8"/>
    <path d="M 253.853408 176.256291 
C 254.702472 176.256291 255.516875 175.918955 256.117255 175.318576 
C 256.717634 174.718197 257.05497 173.903794 257.05497 173.054729 
C 257.05497 172.205665 256.717634 171.391262 256.117255 170.790883 
C 255.516875 170.190504 254.702472 169.853167 253.853408 169.853167 
C 253.004344 169.853167 252.189941 170.190504 251.589562 170.790883 
C 250.989183 171.391262 250.651846 172.205665 250.651846 173.054729 
C 250.651846 173.903794 250.989183 174.718197 251.589562 175.318576 
C 252.189941 175.918955 253.004344 176.256291 253.853408 176.256291 
z
" clip-path="url(#p183db6367a)" style="fill: #e0b63e; fill-opacity: 0.78; stroke: #ffffff; stroke-opacity: 0.78; stroke-width: 0.8"/>
    <path d="M 290.956764 156.617095 
C 291.805828 156.617095 292.620231 156.279758 293.22061 155.679379 
C 293.820989 155.079 294.158326 154.264597 294.158326 153.415532 
C 294.158326 152.566468 293.820989 151.752065 293.22061 151.151686 
C 292.620231 150.551307 291.805828 150.21397 290.956764 150.21397 
C 290.1077 150.21397 289.293297 150.551307 288.692918 151.151686 
C 288.092538 151.752065 287.755202 152.566468 287.755202 153.415532 
C 287.755202 154.264597 288.092538 155.079 288.692918 155.679379 
C 289.293297 156.279758 290.1077 156.617095 290.956764 156.617095 
z
" clip-path="url(#p183db6367a)" style="fill: #e0b63e; fill-opacity: 0.78; stroke: #ffffff; stroke-opacity: 0.78; stroke-width: 0.8"/>
    <path d="M 316.272283 117.744958 
C 317.121347 117.744958 317.93575 117.407622 318.536129 116.807243 
C 319.136508 116.206864 319.473845 115.39246 319.473845 114.543396 
C 319.473845 113.694332 319.136508 112.879929 318.536129 112.27955 
C 317.93575 111.679171 317.121347 111.341834 316.272283 111.341834 
C 315.423219 111.341834 314.608816 111.679171 314.008437 112.27955 
C 313.408058 112.879929 313.070721 113.694332 313.070721 114.543396 
C 313.070721 115.39246 313.408058 116.206864 314.008437 116.807243 
C 314.608816 117.407622 315.423219 117.744958 316.272283 117.744958 
z
" clip-path="url(#p183db6367a)" style="fill: #e0b63e; fill-opacity: 0.78; stroke: #ffffff; stroke-opacity: 0.78; stroke-width: 0.8"/>
    <path d="M 309.965445 173.801691 
C 310.814509 173.801691 311.628912 173.464354 312.229291 172.863975 
C 312.82967 172.263596 313.167007 171.449193 313.167007 170.600129 
C 313.167007 169.751065 312.82967 168.936662 312.229291 168.336283 
C 311.628912 167.735904 310.814509 167.398567 309.965445 167.398567 
C 309.116381 167.398567 308.301978 167.735904 307.701599 168.336283 
C 307.10122 168.936662 306.763883 169.751065 306.763883 170.600129 
C 306.763883 171.449193 307.10122 172.263596 307.701599 172.863975 
C 308.301978 173.464354 309.116381 173.801691 309.965445 173.801691 
z
" clip-path="url(#p183db6367a)" style="fill: #e0b63e; fill-opacity: 0.78; stroke: #ffffff; stroke-opacity: 0.78; stroke-width: 0.8"/>
    <path d="M 340.792441 69.940634 
C 343.496992 69.940634 346.091136 68.866104 348.003543 66.953698 
C 349.91595 65.041291 350.99048 62.447147 350.99048 59.742595 
C 350.99048 57.038043 349.91595 54.443899 348.003543 52.531493 
C 346.091136 50.619086 343.496992 49.544556 340.792441 49.544556 
C 338.087889 49.544556 335.493745 50.619086 333.581338 52.531493 
C 331.668931 54.443899 330.594402 57.038043 330.594402 59.742595 
C 330.594402 62.447147 331.668931 65.041291 333.581338 66.953698 
C 335.493745 68.866104 338.087889 69.940634 340.792441 69.940634 
z
" clip-path="url(#p183db6367a)" style="fill: #e0b63e; fill-opacity: 0.78; stroke: #ffffff; stroke-opacity: 0.78; stroke-width: 0.8"/>
    <path d="M 210.726123 118.943596 
C 211.575188 118.943596 212.389591 118.606259 212.98997 118.00588 
C 213.590349 117.405501 213.927686 116.591098 213.927686 115.742034 
C 213.927686 114.89297 213.590349 114.078567 212.98997 113.478188 
C 212.389591 112.877808 211.575188 112.540472 210.726123 112.540472 
C 209.877059 112.540472 209.062656 112.877808 208.462277 113.478188 
C 207.861898 114.078567 207.524561 114.89297 207.524561 115.742034 
C 207.524561 116.591098 207.861898 117.405501 208.462277 118.00588 
C 209.062656 118.606259 209.877059 118.943596 210.726123 118.943596 
z
" clip-path="url(#p183db6367a)" style="fill: #e0b63e; fill-opacity: 0.78; stroke: #ffffff; stroke-opacity: 0.78; stroke-width: 0.8"/>
    <path d="M 136.217944 240.367639 
C 137.067008 240.367639 137.881411 240.030303 138.48179 239.429924 
C 139.082169 238.829545 139.419506 238.015142 139.419506 237.166077 
C 139.419506 236.317013 139.082169 235.50261 138.48179 234.902231 
C 137.881411 234.301852 137.067008 233.964515 136.217944 233.964515 
C 135.368879 233.964515 134.554476 234.301852 133.954097 234.902231 
C 133.353718 235.50261 133.016381 236.317013 133.016381 237.166077 
C 133.016381 238.015142 133.353718 238.829545 133.954097 239.429924 
C 134.554476 240.030303 135.368879 240.367639 136.217944 240.367639 
z
" clip-path="url(#p183db6367a)" style="fill: #e0b63e; fill-opacity: 0.78; stroke: #ffffff; stroke-opacity: 0.78; stroke-width: 0.8"/>
    <path d="M 101.18291 228.977651 
C 102.031975 228.977651 102.846378 228.640315 103.446757 228.039936 
C 104.047136 227.439557 104.384473 226.625154 104.384473 225.776089 
C 104.384473 224.927025 104.047136 224.112622 103.446757 223.512243 
C 102.846378 222.911864 102.031975 222.574527 101.18291 222.574527 
C 100.333846 222.574527 99.519443 222.911864 98.919064 223.512243 
C 98.318685 224.112622 97.981348 224.927025 97.981348 225.776089 
C 97.981348 226.625154 98.318685 227.439557 98.919064 228.039936 
C 99.519443 228.640315 100.333846 228.977651 101.18291 228.977651 
z
" clip-path="url(#p183db6367a)" style="fill: #e0b63e; fill-opacity: 0.78; stroke: #ffffff; stroke-opacity: 0.78; stroke-width: 0.8"/>
    <path d="M 336.014479 78.639155 
C 336.863543 78.639155 337.677947 78.301818 338.278326 77.701439 
C 338.878705 77.10106 339.216041 76.286657 339.216041 75.437593 
C 339.216041 74.588529 338.878705 73.774126 338.278326 73.173747 
C 337.677947 72.573368 336.863543 72.236031 336.014479 72.236031 
C 335.165415 72.236031 334.351012 72.573368 333.750633 73.173747 
C 333.150254 73.774126 332.812917 74.588529 332.812917 75.437593 
C 332.812917 76.286657 333.150254 77.10106 333.750633 77.701439 
C 334.351012 78.301818 335.165415 78.639155 336.014479 78.639155 
z
" clip-path="url(#p183db6367a)" style="fill: #e0b63e; fill-opacity: 0.78; stroke: #ffffff; stroke-opacity: 0.78; stroke-width: 0.8"/>
    <path d="M 196.687836 221.695535 
C 197.536901 221.695535 198.351304 221.358198 198.951683 220.757819 
C 199.552062 220.15744 199.889398 219.343037 199.889398 218.493973 
C 199.889398 217.644909 199.552062 216.830506 198.951683 216.230127 
C 198.351304 215.629748 197.536901 215.292411 196.687836 215.292411 
C 195.838772 215.292411 195.024369 215.629748 194.42399 216.230127 
C 193.823611 216.830506 193.486274 217.644909 193.486274 218.493973 
C 193.486274 219.343037 193.823611 220.15744 194.42399 220.757819 
C 195.024369 221.358198 195.838772 221.695535 196.687836 221.695535 
z
" clip-path="url(#p183db6367a)" style="fill: #e0b63e; fill-opacity: 0.78; stroke: #ffffff; stroke-opacity: 0.78; stroke-width: 0.8"/>
    <path d="M 122.830467 212.696892 
C 123.679532 212.696892 124.493935 212.359556 125.094314 211.759177 
C 125.694693 211.158798 126.03203 210.344394 126.03203 209.49533 
C 126.03203 208.646266 125.694693 207.831863 125.094314 207.231484 
C 124.493935 206.631105 123.679532 206.293768 122.830467 206.293768 
C 121.981403 206.293768 121.167 206.631105 120.566621 207.231484 
C 119.966242 207.831863 119.628905 208.646266 119.628905 209.49533 
C 119.628905 210.344394 119.966242 211.158798 120.566621 211.759177 
C 121.167 212.359556 121.981403 212.696892 122.830467 212.696892 
z
" clip-path="url(#p183db6367a)" style="fill: #e0b63e; fill-opacity: 0.78; stroke: #ffffff; stroke-opacity: 0.78; stroke-width: 0.8"/>
    <path d="M 92.842077 170.685872 
C 93.691141 170.685872 94.505544 170.348535 95.105923 169.748156 
C 95.706302 169.147777 96.043639 168.333374 96.043639 167.48431 
C 96.043639 166.635245 95.706302 165.820842 95.105923 165.220463 
C 94.505544 164.620084 93.691141 164.282747 92.842077 164.282747 
C 91.993013 164.282747 91.17861 164.620084 90.578231 165.220463 
C 89.977852 165.820842 89.640515 166.635245 89.640515 167.48431 
C 89.640515 168.333374 89.977852 169.147777 90.578231 169.748156 
C 91.17861 170.348535 91.993013 170.685872 92.842077 170.685872 
z
" clip-path="url(#p183db6367a)" style="fill: #e0b63e; fill-opacity: 0.78; stroke: #ffffff; stroke-opacity: 0.78; stroke-width: 0.8"/>
    <path d="M 167.577091 266.684032 
C 168.426155 266.684032 169.240558 266.346695 169.840937 265.746316 
C 170.441316 265.145937 170.778653 264.331534 170.778653 263.48247 
C 170.778653 262.633406 170.441316 261.819003 169.840937 261.218624 
C 169.240558 260.618245 168.426155 260.280908 167.577091 260.280908 
C 166.728027 260.280908 165.913624 260.618245 165.313245 261.218624 
C 164.712866 261.819003 164.375529 262.633406 164.375529 263.48247 
C 164.375529 264.331534 164.712866 265.145937 165.313245 265.746316 
C 165.913624 266.346695 166.728027 266.684032 167.577091 266.684032 
z
" clip-path="url(#p183db6367a)" style="fill: #e0b63e; fill-opacity: 0.78; stroke: #ffffff; stroke-opacity: 0.78; stroke-width: 0.8"/>
    <path d="M 131.635477 221.169019 
C 132.484541 221.169019 133.298944 220.831682 133.899323 220.231303 
C 134.499702 219.630924 134.837039 218.816521 134.837039 217.967457 
C 134.837039 217.118393 134.499702 216.30399 133.899323 215.703611 
C 133.298944 215.103231 132.484541 214.765895 131.635477 214.765895 
C 130.786413 214.765895 129.97201 215.103231 129.371631 215.703611 
C 128.771251 216.30399 128.433915 217.118393 128.433915 217.967457 
C 128.433915 218.816521 128.771251 219.630924 129.371631 220.231303 
C 129.97201 220.831682 130.786413 221.169019 131.635477 221.169019 
z
" clip-path="url(#p183db6367a)" style="fill: #e0b63e; fill-opacity: 0.78; stroke: #ffffff; stroke-opacity: 0.78; stroke-width: 0.8"/>
    <path d="M 97.534267 174.076173 
C 98.383331 174.076173 99.197734 173.738837 99.798113 173.138458 
C 100.398492 172.538079 100.735829 171.723675 100.735829 170.874611 
C 100.735829 170.025547 100.398492 169.211144 99.798113 168.610765 
C 99.197734 168.010386 98.383331 167.673049 97.534267 167.673049 
C 96.685202 167.673049 95.870799 168.010386 95.27042 168.610765 
C 94.670041 169.211144 94.332704 170.025547 94.332704 170.874611 
C 94.332704 171.723675 94.670041 172.538079 95.27042 173.138458 
C 95.870799 173.738837 96.685202 174.076173 97.534267 174.076173 
z
" clip-path="url(#p183db6367a)" style="fill: #e0b63e; fill-opacity: 0.78; stroke: #ffffff; stroke-opacity: 0.78; stroke-width: 0.8"/>
    <path d="M 311.111059 119.891546 
C 311.960123 119.891546 312.774526 119.554209 313.374905 118.95383 
C 313.975284 118.353451 314.312621 117.539048 314.312621 116.689984 
C 314.312621 115.84092 313.975284 115.026517 313.374905 114.426138 
C 312.774526 113.825759 311.960123 113.488422 311.111059 113.488422 
C 310.261995 113.488422 309.447592 113.825759 308.847212 114.426138 
C 308.246833 115.026517 307.909497 115.84092 307.909497 116.689984 
C 307.909497 117.539048 308.246833 118.353451 308.847212 118.95383 
C 309.447592 119.554209 310.261995 119.891546 311.111059 119.891546 
z
" clip-path="url(#p183db6367a)" style="fill: #e0b63e; fill-opacity: 0.78; stroke: #ffffff; stroke-opacity: 0.78; stroke-width: 0.8"/>
    <path d="M 165.351352 213.77867 
C 166.200417 213.77867 167.01482 213.441333 167.615199 212.840954 
C 168.215578 212.240575 168.552915 211.426172 168.552915 210.577108 
C 168.552915 209.728044 168.215578 208.913641 167.615199 208.313262 
C 167.01482 207.712883 166.200417 207.375546 165.351352 207.375546 
C 164.502288 207.375546 163.687885 207.712883 163.087506 208.313262 
C 162.487127 208.913641 162.14979 209.728044 162.14979 210.577108 
C 162.14979 211.426172 162.487127 212.240575 163.087506 212.840954 
C 163.687885 213.441333 164.502288 213.77867 165.351352 213.77867 
z
" clip-path="url(#p183db6367a)" style="fill: #e0b63e; fill-opacity: 0.78; stroke: #ffffff; stroke-opacity: 0.78; stroke-width: 0.8"/>
    <path d="M 110.281651 216.164981 
C 111.130715 216.164981 111.945118 215.827645 112.545497 215.227266 
C 113.145876 214.626887 113.483213 213.812483 113.483213 212.963419 
C 113.483213 212.114355 113.145876 211.299952 112.545497 210.699573 
C 111.945118 210.099194 111.130715 209.761857 110.281651 209.761857 
C 109.432587 209.761857 108.618184 210.099194 108.017805 210.699573 
C 107.417426 211.299952 107.080089 212.114355 107.080089 212.963419 
C 107.080089 213.812483 107.417426 214.626887 108.017805 215.227266 
C 108.618184 215.827645 109.432587 216.164981 110.281651 216.164981 
z
" clip-path="url(#p183db6367a)" style="fill: #e0b63e; fill-opacity: 0.78; stroke: #ffffff; stroke-opacity: 0.78; stroke-width: 0.8"/>
    <path d="M 76.348539 209.895755 
C 77.197603 209.895755 78.012006 209.558418 78.612385 208.958039 
C 79.212764 208.35766 79.550101 207.543257 79.550101 206.694193 
C 79.550101 205.845128 79.212764 205.030725 78.612385 204.430346 
C 78.012006 203.829967 77.197603 203.492631 76.348539 203.492631 
C 75.499475 203.492631 74.685072 203.829967 74.084693 204.430346 
C 73.484313 205.030725 73.146977 205.845128 73.146977 206.694193 
C 73.146977 207.543257 73.484313 208.35766 74.084693 208.958039 
C 74.685072 209.558418 75.499475 209.895755 76.348539 209.895755 
z
" clip-path="url(#p183db6367a)" style="fill: #e0b63e; fill-opacity: 0.78; stroke: #ffffff; stroke-opacity: 0.78; stroke-width: 0.8"/>
    <path d="M 144.087882 170.931819 
C 144.936947 170.931819 145.75135 170.594482 146.351729 169.994103 
C 146.952108 169.393724 147.289445 168.579321 147.289445 167.730257 
C 147.289445 166.881193 146.952108 166.06679 146.351729 165.466411 
C 145.75135 164.866031 144.936947 164.528695 144.087882 164.528695 
C 143.238818 164.528695 142.424415 164.866031 141.824036 165.466411 
C 141.223657 166.06679 140.88632 166.881193 140.88632 167.730257 
C 140.88632 168.579321 141.223657 169.393724 141.824036 169.994103 
C 142.424415 170.594482 143.238818 170.931819 144.087882 170.931819 
z
" clip-path="url(#p183db6367a)" style="fill: #e0b63e; fill-opacity: 0.78; stroke: #ffffff; stroke-opacity: 0.78; stroke-width: 0.8"/>
    <path d="M 183.750114 88.390681 
C 186.144297 88.390681 188.440743 87.439462 190.133687 85.746519 
C 191.82663 84.053576 192.777849 81.75713 192.777849 79.362946 
C 192.777849 76.968763 191.82663 74.672317 190.133687 72.979374 
C 188.440743 71.28643 186.144297 70.335211 183.750114 70.335211 
C 181.355931 70.335211 179.059484 71.28643 177.366541 72.979374 
C 175.673598 74.672317 174.722379 76.968763 174.722379 79.362946 
C 174.722379 81.75713 175.673598 84.053576 177.366541 85.746519 
C 179.059484 87.439462 181.355931 88.390681 183.750114 88.390681 
z
" clip-path="url(#p183db6367a)" style="fill: #e0b63e; fill-opacity: 0.78; stroke: #ffffff; stroke-opacity: 0.78; stroke-width: 0.8"/>
    <path d="M 344.190557 331.145904 
C 345.039621 331.145904 345.854024 330.808567 346.454403 330.208188 
C 347.054782 329.607809 347.392119 328.793406 347.392119 327.944342 
C 347.392119 327.095278 347.054782 326.280875 346.454403 325.680496 
C 345.854024 325.080116 345.039621 324.74278 344.190557 324.74278 
C 343.341493 324.74278 342.52709 325.080116 341.926711 325.680496 
C 341.326332 326.280875 340.988995 327.095278 340.988995 327.944342 
C 340.988995 328.793406 341.326332 329.607809 341.926711 330.208188 
C 342.52709 330.808567 343.341493 331.145904 344.190557 331.145904 
z
" clip-path="url(#p183db6367a)" style="fill: #e0b63e; fill-opacity: 0.78; stroke: #ffffff; stroke-opacity: 0.78; stroke-width: 0.8"/>
    <path d="M 29.012727 177.888927 
C 29.861791 177.888927 30.676195 177.55159 31.276574 176.951211 
C 31.876953 176.350832 32.214289 175.536429 32.214289 174.687365 
C 32.214289 173.838301 31.876953 173.023898 31.276574 172.423519 
C 30.676195 171.82314 29.861791 171.485803 29.012727 171.485803 
C 28.163663 171.485803 27.34926 171.82314 26.748881 172.423519 
C 26.148502 173.023898 25.811165 173.838301 25.811165 174.687365 
C 25.811165 175.536429 26.148502 176.350832 26.748881 176.951211 
C 27.34926 177.55159 28.163663 177.888927 29.012727 177.888927 
z
" clip-path="url(#p183db6367a)" style="fill: #e0b63e; fill-opacity: 0.78; stroke: #ffffff; stroke-opacity: 0.78; stroke-width: 0.8"/>
    <path d="M 134.290973 232.496661 
C 135.140037 232.496661 135.95444 232.159324 136.554819 231.558945 
C 137.155198 230.958566 137.492535 230.144163 137.492535 229.295099 
C 137.492535 228.446035 137.155198 227.631632 136.554819 227.031253 
C 135.95444 226.430874 135.140037 226.093537 134.290973 226.093537 
C 133.441908 226.093537 132.627505 226.430874 132.027126 227.031253 
C 131.426747 227.631632 131.08941 228.446035 131.08941 229.295099 
C 131.08941 230.144163 131.426747 230.958566 132.027126 231.558945 
C 132.627505 232.159324 133.441908 232.496661 134.290973 232.496661 
z
" clip-path="url(#p183db6367a)" style="fill: #e0b63e; fill-opacity: 0.78; stroke: #ffffff; stroke-opacity: 0.78; stroke-width: 0.8"/>
    <path d="M 130.149904 108.588876 
C 130.998968 108.588876 131.813371 108.251539 132.41375 107.65116 
C 133.014129 107.050781 133.351466 106.236378 133.351466 105.387314 
C 133.351466 104.53825 133.014129 103.723847 132.41375 103.123467 
C 131.813371 102.523088 130.998968 102.185752 130.149904 102.185752 
C 129.300839 102.185752 128.486436 102.523088 127.886057 103.123467 
C 127.285678 103.723847 126.948342 104.53825 126.948342 105.387314 
C 126.948342 106.236378 127.285678 107.050781 127.886057 107.65116 
C 128.486436 108.251539 129.300839 108.588876 130.149904 108.588876 
z
" clip-path="url(#p183db6367a)" style="fill: #e0b63e; fill-opacity: 0.78; stroke: #ffffff; stroke-opacity: 0.78; stroke-width: 0.8"/>
   </g>
   <g id="patch_3">
    <path d="M 7.2 342.308342 
L 7.2 26.300342 
" style="fill: none; stroke: #c2c7cd; stroke-linejoin: miter; stroke-linecap: square"/>
   </g>
   <g id="patch_4">
    <path d="M 7.2 342.308342 
L 487.08 342.308342 
" style="fill: none; stroke: #c2c7cd; stroke-linejoin: miter; stroke-linecap: square"/>
   </g>
   <g id="text_2">
    <g id="patch_5">
     <path d="M 370.490665 72.063392 
L 525.864072 72.063392 
Q 527.936072 72.063392 527.936072 69.991392 
L 527.936072 63.046665 
Q 527.936072 60.974665 525.864072 60.974665 
L 370.490665 60.974665 
Q 368.418665 60.974665 368.418665 63.046665 
L 368.418665 69.991392 
Q 368.418665 72.063392 370.490665 72.063392 
z
" style="fill: #ffffff; opacity: 0.92; stroke: #d9dee3; stroke-width: 0.7; stroke-linejoin: miter"/>
    </g>
    <text style="font-size: 7.4px; font-family: 'Arial'; text-anchor: start; fill: #3a3f45" x="370.490665" y="68.434068" transform="rotate(-0 370.490665 68.434068)">"More detailed and specific, which I liked. I a…"</text>
   </g>
   <g id="text_3">
    <g id="patch_6">
     <path d="M 350.831848 37.545188 
L 521.418036 37.545188 
Q 523.490036 37.545188 523.490036 35.473188 
L 523.490036 28.528317 
Q 523.490036 26.456317 521.418036 26.456317 
L 350.831848 26.456317 
Q 348.759848 26.456317 348.759848 28.528317 
L 348.759848 35.473188 
Q 348.759848 37.545188 350.831848 37.545188 
z
" style="fill: #ffffff; opacity: 0.92; stroke: #d9dee3; stroke-width: 0.7; stroke-linejoin: miter"/>
    </g>
    <text style="font-size: 7.4px; font-family: 'Arial'; text-anchor: start; fill: #3a3f45" x="350.831848" y="33.915719" transform="rotate(-0 350.831848 33.915719)">"I felt there was a more comprehensive coverage…"</text>
   </g>
   <g id="text_4">
    <g id="patch_7">
     <path d="M 353.668096 109.870697 
L 519.734502 109.870697 
Q 521.806502 109.870697 521.806502 107.798697 
L 521.806502 100.853825 
Q 521.806502 98.781825 519.734502 98.781825 
L 353.668096 98.781825 
Q 351.596096 98.781825 351.596096 100.853825 
L 351.596096 107.798697 
Q 351.596096 109.870697 353.668096 109.870697 
z
" style="fill: #ffffff; opacity: 0.92; stroke: #d9dee3; stroke-width: 0.7; stroke-linejoin: miter"/>
    </g>
    <text style="font-size: 7.4px; font-family: 'Arial'; text-anchor: start; fill: #3a3f45" x="353.668096" y="106.241228" transform="rotate(-0 353.668096 106.241228)">"The most important thing was that this one sho…"</text>
   </g>
   <g id="text_5">
    <g id="patch_8">
     <path d="M 349.792441 54.371919 
L 505.994878 54.371919 
Q 508.066878 54.371919 508.066878 52.299919 
L 508.066878 45.355193 
Q 508.066878 43.283193 505.994878 43.283193 
L 349.792441 43.283193 
Q 347.720441 43.283193 347.720441 45.355193 
L 347.720441 52.299919 
Q 347.720441 54.371919 349.792441 54.371919 
z
" style="fill: #ffffff; opacity: 0.92; stroke: #d9dee3; stroke-width: 0.7; stroke-linejoin: miter"/>
    </g>
    <text style="font-size: 7.4px; font-family: 'Arial'; text-anchor: start; fill: #3a3f45" x="349.792441" y="50.742595" transform="rotate(-0 349.792441 50.742595)">"For the nature of the question, I liked how cl…"</text>
   </g>
   <g id="text_6">
    <g id="patch_9">
     <path d="M 464.710652 154.665999 
L 632.015402 154.665999 
Q 634.087402 154.665999 634.087402 152.593999 
L 634.087402 145.649128 
Q 634.087402 143.577128 632.015402 143.577128 
L 464.710652 143.577128 
Q 462.638652 143.577128 462.638652 145.649128 
L 462.638652 152.593999 
Q 462.638652 154.665999 464.710652 154.665999 
z
" style="fill: #ffffff; opacity: 0.92; stroke: #d9dee3; stroke-width: 0.7; stroke-linejoin: miter"/>
    </g>
    <text style="font-size: 7.4px; font-family: 'Arial'; text-anchor: start; fill: #3a3f45" x="464.710652" y="151.03653" transform="rotate(-0 464.710652 151.03653)">"There were definitely fewer unsupported or spe…"</text>
   </g>
   <g id="text_7">
    <g id="patch_10">
     <path d="M 192.750114 73.992415 
L 333.294614 73.992415 
Q 335.366614 73.992415 335.366614 71.920415 
L 335.366614 64.975544 
Q 335.366614 62.903544 333.294614 62.903544 
L 192.750114 62.903544 
Q 190.678114 62.903544 190.678114 64.975544 
L 190.678114 71.920415 
Q 190.678114 73.992415 192.750114 73.992415 
z
" style="fill: #ffffff; opacity: 0.92; stroke: #d9dee3; stroke-width: 0.7; stroke-linejoin: miter"/>
    </g>
    <text style="font-size: 7.4px; font-family: 'Arial'; text-anchor: start; fill: #3a3f45" x="192.750114" y="70.362946" transform="rotate(-0 192.750114 70.362946)">"This system was much more to-the-point."</text>
   </g>
   <g id="text_8">
    <g id="patch_11">
     <path d="M 454.68158 228.966317 
L 610.892111 228.966317 
Q 612.964111 228.966317 612.964111 226.894317 
L 612.964111 219.949591 
Q 612.964111 217.877591 610.892111 217.877591 
L 454.68158 217.877591 
Q 452.60958 217.877591 452.60958 219.949591 
L 452.60958 226.894317 
Q 452.60958 228.966317 454.68158 228.966317 
z
" style="fill: #ffffff; opacity: 0.92; stroke: #d9dee3; stroke-width: 0.7; stroke-linejoin: miter"/>
    </g>
    <text style="font-size: 7.4px; font-family: 'Arial'; text-anchor: start; fill: #3a3f45" x="454.68158" y="225.336993" transform="rotate(-0 454.68158 225.336993)">"Provides citations both in-line and at the bot…"</text>
   </g>
   <g id="text_9">
    <text style="font-weight: 700; font-size: 12.5px; font-family: 'Arial'; text-anchor: start; fill: #1f2328" x="7.2" y="16.300342" transform="rotate(-0 7.2 16.300342)">Semantic map of the reasons</text>
   </g>
   <g id="legend_1">
    <g id="PathCollection_3">
     <defs>
      <path id="m5a9ba82d07" d="M 0 9.233093 
C 2.448645 9.233093 4.797329 8.260236 6.528782 6.528782 
C 8.260236 4.797329 9.233093 2.448645 9.233093 0 
C 9.233093 -2.448645 8.260236 -4.797329 6.528782 -6.528782 
C 4.797329 -8.260236 2.448645 -9.233093 0 -9.233093 
C -2.448645 -9.233093 -4.797329 -8.260236 -6.528782 -6.528782 
C -8.260236 -4.797329 -9.233093 -2.448645 -9.233093 0 
C -9.233093 2.448645 -8.260236 4.797329 -6.528782 6.528782 
C -4.797329 8.260236 -2.448645 9.233093 0 9.233093 
z
" style="stroke: #ffffff; stroke-opacity: 0.78; stroke-width: 0.8"/>
     </defs>
     <g>
      <use xlink:href="#m5a9ba82d07" x="24.3" y="38.590088" style="fill: #4c72b0; fill-opacity: 0.78; stroke: #ffffff; stroke-opacity: 0.78; stroke-width: 0.8"/>
     </g>
    </g>
    <g id="text_10">
     <text style="font-size: 9px; font-family: 'Arial'; text-anchor: start" x="40.5" y="40.952588" transform="rotate(-0 40.5 40.952588)">Eubiota (agent)</text>
    </g>
    <g id="PathCollection_4">
     <defs>
      <path id="m6a24e22042" d="M 0 7.558108 
C 2.004434 7.558108 3.927041 6.761738 5.34439 5.34439 
C 6.761738 3.927041 7.558108 2.004434 7.558108 0 
C 7.558108 -2.004434 6.761738 -3.927041 5.34439 -5.34439 
C 3.927041 -6.761738 2.004434 -7.558108 0 -7.558108 
C -2.004434 -7.558108 -3.927041 -6.761738 -5.34439 -5.34439 
C -6.761738 -3.927041 -7.558108 -2.004434 -7.558108 0 
C -7.558108 2.004434 -6.761738 3.927041 -5.34439 5.34439 
C -3.927041 6.761738 -2.004434 7.558108 0 7.558108 
z
" style="stroke: #ffffff; stroke-opacity: 0.78; stroke-width: 0.8"/>
     </defs>
     <g>
      <use xlink:href="#m6a24e22042" x="24.3" y="51.536553" style="fill: #e0b63e; fill-opacity: 0.78; stroke: #ffffff; stroke-opacity: 0.78; stroke-width: 0.8"/>
     </g>
    </g>
    <g id="text_11">
     <text style="font-size: 9px; font-family: 'Arial'; text-anchor: start" x="40.5" y="53.899053" transform="rotate(-0 40.5 53.899053)">Chatbot (LLM)</text>
    </g>
   </g>
  </g>
 </g>
 <defs>
  <clipPath id="p183db6367a">
   <rect x="7.2" y="26.300342" width="479.88" height="316.008"/>
  </clipPath>
 </defs>
</svg>
