<?xml version="1.0" encoding="utf-8" standalone="no"?>
<!DOCTYPE svg PUBLIC "-//W3C//DTD SVG 1.1//EN"
  "http://www.w3.org/Graphics/SVG/1.1/DTD/svg11.dtd">
<svg xmlns:xlink="http://www.w3.org/1999/xlink" width="657.145487pt" height="388.858359pt" viewBox="0 0 657.145487 388.858359" xmlns="http://www.w3.org/2000/svg" version="1.1">
 <metadata>
  <rdf:RDF xmlns:dc="http://purl.org/dc/elements/1.1/" xmlns:cc="http://creativecommons.org/ns#" xmlns:rdf="http://www.w3.org/1999/02/22-rdf-syntax-ns#">
   <cc:Work>
    <dc:type rdf:resource="http://purl.org/dc/dcmitype/StillImage"/>
    <dc:date>2026-07-16T02:10:17.701346</dc:date>
    <dc:format>image/svg+xml</dc:format>
    <dc:creator>
     <cc:Agent>
      <dc:title>Matplotlib v3.11.0, https://matplotlib.org/</dc:title>
     </cc:Agent>
    </dc:creator>
   </cc:Work>
  </rdf:RDF>
 </metadata>
 <defs>
  <style type="text/css">*{stroke-linejoin: round; stroke-linecap: butt}</style>
 </defs>
 <g id="figure_1">
  <g id="patch_1">
   <path d="M 0 388.858359 
L 657.145487 388.858359 
L 657.145487 0 
L 0 0 
z
" style="fill: #ffffff"/>
  </g>
  <g id="axes_1">
   <g id="patch_2">
    <path d="M 7.2 361.304355 
L 509.4 361.304355 
L 509.4 28.664355 
L 7.2 28.664355 
z
" style="fill: #ffffff"/>
   </g>
   <g id="matplotlib.axis_1">
    <g id="xtick_1">
     <g id="line2d_1">
      <path d="M 37.650539 361.304355 
L 37.650539 28.664355 
" clip-path="url(#p2dad04a329)" style="fill: none; stroke: #f0f2f5; stroke-linecap: square"/>
     </g>
     <g id="line2d_2"/>
    </g>
    <g id="xtick_2">
     <g id="line2d_3">
      <path d="M 118.037098 361.304355 
L 118.037098 28.664355 
" clip-path="url(#p2dad04a329)" style="fill: none; stroke: #f0f2f5; stroke-linecap: square"/>
     </g>
     <g id="line2d_4"/>
    </g>
    <g id="xtick_3">
     <g id="line2d_5">
      <path d="M 198.423656 361.304355 
L 198.423656 28.664355 
" clip-path="url(#p2dad04a329)" style="fill: none; stroke: #f0f2f5; stroke-linecap: square"/>
     </g>
     <g id="line2d_6"/>
    </g>
    <g id="xtick_4">
     <g id="line2d_7">
      <path d="M 278.810215 361.304355 
L 278.810215 28.664355 
" clip-path="url(#p2dad04a329)" style="fill: none; stroke: #f0f2f5; stroke-linecap: square"/>
     </g>
     <g id="line2d_8"/>
    </g>
    <g id="xtick_5">
     <g id="line2d_9">
      <path d="M 359.196774 361.304355 
L 359.196774 28.664355 
" clip-path="url(#p2dad04a329)" style="fill: none; stroke: #f0f2f5; stroke-linecap: square"/>
     </g>
     <g id="line2d_10"/>
    </g>
    <g id="xtick_6">
     <g id="line2d_11">
      <path d="M 439.583333 361.304355 
L 439.583333 28.664355 
" clip-path="url(#p2dad04a329)" style="fill: none; stroke: #f0f2f5; stroke-linecap: square"/>
     </g>
     <g id="line2d_12"/>
    </g>
    <g id="text_1">
     <text style="font-size: 10.5px; font-family: 'Arial'; text-anchor: middle; fill: #41474d" x="258.3" y="379.448643" transform="rotate(-0 258.3 379.448643)">← similar reasons are placed near each other →</text>
    </g>
   </g>
   <g id="matplotlib.axis_2">
    <g id="ytick_1">
     <g id="line2d_13">
      <path d="M 7.2 324.711095 
L 509.4 324.711095 
" clip-path="url(#p2dad04a329)" style="fill: none; stroke: #f0f2f5; stroke-linecap: square"/>
     </g>
     <g id="line2d_14"/>
    </g>
    <g id="ytick_2">
     <g id="line2d_15">
      <path d="M 7.2 265.628636 
L 509.4 265.628636 
" clip-path="url(#p2dad04a329)" style="fill: none; stroke: #f0f2f5; stroke-linecap: square"/>
     </g>
     <g id="line2d_16"/>
    </g>
    <g id="ytick_3">
     <g id="line2d_17">
      <path d="M 7.2 206.546177 
L 509.4 206.546177 
" clip-path="url(#p2dad04a329)" style="fill: none; stroke: #f0f2f5; stroke-linecap: square"/>
     </g>
     <g id="line2d_18"/>
    </g>
    <g id="ytick_4">
     <g id="line2d_19">
      <path d="M 7.2 147.463718 
L 509.4 147.463718 
" clip-path="url(#p2dad04a329)" style="fill: none; stroke: #f0f2f5; stroke-linecap: square"/>
     </g>
     <g id="line2d_20"/>
    </g>
    <g id="ytick_5">
     <g id="line2d_21">
      <path d="M 7.2 88.381258 
L 509.4 88.381258 
" clip-path="url(#p2dad04a329)" style="fill: none; stroke: #f0f2f5; stroke-linecap: square"/>
     </g>
     <g id="line2d_22"/>
    </g>
    <g id="ytick_6">
     <g id="line2d_23">
      <path d="M 7.2 29.298799 
L 509.4 29.298799 
" clip-path="url(#p2dad04a329)" style="fill: none; stroke: #f0f2f5; stroke-linecap: square"/>
     </g>
     <g id="line2d_24"/>
    </g>
   </g>
   <g id="PathCollection_1">
    <path d="M 187.06472 267.860644 
C 187.964068 267.860644 188.826701 267.50333 189.462636 266.867395 
C 190.098571 266.23146 190.455885 265.368827 190.455885 264.469479 
C 190.455885 263.570132 190.098571 262.707498 189.462636 262.071564 
C 188.826701 261.435629 187.964068 261.078314 187.06472 261.078314 
C 186.165373 261.078314 185.302739 261.435629 184.666804 262.071564 
C 184.03087 262.707498 183.673555 263.570132 183.673555 264.469479 
C 183.673555 265.368827 184.03087 266.23146 184.666804 266.867395 
C 185.302739 267.50333 186.165373 267.860644 187.06472 267.860644 
z
" clip-path="url(#p2dad04a329)" style="fill: #4c72b0; fill-opacity: 0.72; stroke: #ffffff; stroke-opacity: 0.72"/>
    <path d="M 427.630067 293.360686 
C 428.529415 293.360686 429.392048 293.003371 430.027983 292.367437 
C 430.663918 291.731502 431.021232 290.868868 431.021232 289.969521 
C 431.021232 289.070173 430.663918 288.20754 430.027983 287.571605 
C 429.392048 286.93567 428.529415 286.578356 427.630067 286.578356 
C 426.73072 286.578356 425.868086 286.93567 425.232151 287.571605 
C 424.596217 288.20754 424.238902 289.070173 424.238902 289.969521 
C 424.238902 290.868868 424.596217 291.731502 425.232151 292.367437 
C 425.868086 293.003371 426.73072 293.360686 427.630067 293.360686 
z
" clip-path="url(#p2dad04a329)" style="fill: #4c72b0; fill-opacity: 0.72; stroke: #ffffff; stroke-opacity: 0.72"/>
    <path d="M 404.607786 201.435339 
C 405.507134 201.435339 406.369767 201.078024 407.005702 200.44209 
C 407.641637 199.806155 407.998951 198.943521 407.998951 198.044174 
C 407.998951 197.144826 407.641637 196.282193 407.005702 195.646258 
C 406.369767 195.010323 405.507134 194.653009 404.607786 194.653009 
C 403.708439 194.653009 402.845805 195.010323 402.209871 195.646258 
C 401.573936 196.282193 401.216621 197.144826 401.216621 198.044174 
C 401.216621 198.943521 401.573936 199.806155 402.209871 200.44209 
C 402.845805 201.078024 403.708439 201.435339 404.607786 201.435339 
z
" clip-path="url(#p2dad04a329)" style="fill: #4c72b0; fill-opacity: 0.72; stroke: #ffffff; stroke-opacity: 0.72"/>
    <path d="M 404.48739 243.055613 
C 405.386738 243.055613 406.249371 242.698298 406.885306 242.062363 
C 407.521241 241.426429 407.878555 240.563795 407.878555 239.664448 
C 407.878555 238.7651 407.521241 237.902466 406.885306 237.266532 
C 406.249371 236.630597 405.386738 236.273283 404.48739 236.273283 
C 403.588043 236.273283 402.725409 236.630597 402.089474 237.266532 
C 401.45354 237.902466 401.096225 238.7651 401.096225 239.664448 
C 401.096225 240.563795 401.45354 241.426429 402.089474 242.062363 
C 402.725409 242.698298 403.588043 243.055613 404.48739 243.055613 
z
" clip-path="url(#p2dad04a329)" style="fill: #4c72b0; fill-opacity: 0.72; stroke: #ffffff; stroke-opacity: 0.72"/>
    <path d="M 432.004543 211.865691 
C 432.90389 211.865691 433.766524 211.508377 434.402458 210.872442 
C 435.038393 210.236507 435.395708 209.373874 435.395708 208.474526 
C 435.395708 207.575179 435.038393 206.712545 434.402458 206.076611 
C 433.766524 205.440676 432.90389 205.083361 432.004543 205.083361 
C 431.105195 205.083361 430.242562 205.440676 429.606627 206.076611 
C 428.970692 206.712545 428.613378 207.575179 428.613378 208.474526 
C 428.613378 209.373874 428.970692 210.236507 429.606627 210.872442 
C 430.242562 211.508377 431.105195 211.865691 432.004543 211.865691 
z
" clip-path="url(#p2dad04a329)" style="fill: #4c72b0; fill-opacity: 0.72; stroke: #ffffff; stroke-opacity: 0.72"/>
    <path d="M 381.124464 229.842338 
C 382.023811 229.842338 382.886445 229.485023 383.52238 228.849089 
C 384.158314 228.213154 384.515629 227.35052 384.515629 226.451173 
C 384.515629 225.551825 384.158314 224.689192 383.52238 224.053257 
C 382.886445 223.417322 382.023811 223.060008 381.124464 223.060008 
C 380.225116 223.060008 379.362483 223.417322 378.726548 224.053257 
C 378.090613 224.689192 377.733299 225.551825 377.733299 226.451173 
C 377.733299 227.35052 378.090613 228.213154 378.726548 228.849089 
C 379.362483 229.485023 380.225116 229.842338 381.124464 229.842338 
z
" clip-path="url(#p2dad04a329)" style="fill: #4c72b0; fill-opacity: 0.72; stroke: #ffffff; stroke-opacity: 0.72"/>
    <path d="M 364.326713 198.978818 
C 365.22606 198.978818 366.088694 198.621504 366.724628 197.985569 
C 367.360563 197.349634 367.717878 196.487001 367.717878 195.587653 
C 367.717878 194.688306 367.360563 193.825672 366.724628 193.189737 
C 366.088694 192.553803 365.22606 192.196488 364.326713 192.196488 
C 363.427365 192.196488 362.564732 192.553803 361.928797 193.189737 
C 361.292862 193.825672 360.935548 194.688306 360.935548 195.587653 
C 360.935548 196.487001 361.292862 197.349634 361.928797 197.985569 
C 362.564732 198.621504 363.427365 198.978818 364.326713 198.978818 
z
" clip-path="url(#p2dad04a329)" style="fill: #4c72b0; fill-opacity: 0.72; stroke: #ffffff; stroke-opacity: 0.72"/>
    <path d="M 445.396217 333.79101 
C 446.295564 333.79101 447.158198 333.433696 447.794132 332.797761 
C 448.430067 332.161826 448.787382 331.299193 448.787382 330.399845 
C 448.787382 329.500498 448.430067 328.637864 447.794132 328.00193 
C 447.158198 327.365995 446.295564 327.00868 445.396217 327.00868 
C 444.496869 327.00868 443.634235 327.365995 442.998301 328.00193 
C 442.362366 328.637864 442.005052 329.500498 442.005052 330.399845 
C 442.005052 331.299193 442.362366 332.161826 442.998301 332.797761 
C 443.634235 333.433696 444.496869 333.79101 445.396217 333.79101 
z
" clip-path="url(#p2dad04a329)" style="fill: #4c72b0; fill-opacity: 0.72; stroke: #ffffff; stroke-opacity: 0.72"/>
    <path d="M 385.912474 240.871213 
C 386.811822 240.871213 387.674455 240.513898 388.31039 239.877963 
C 388.946325 239.242029 389.303639 238.379395 389.303639 237.480048 
C 389.303639 236.5807 388.946325 235.718067 388.31039 235.082132 
C 387.674455 234.446197 386.811822 234.088883 385.912474 234.088883 
C 385.013127 234.088883 384.150493 234.446197 383.514558 235.082132 
C 382.878624 235.718067 382.521309 236.5807 382.521309 237.480048 
C 382.521309 238.379395 382.878624 239.242029 383.514558 239.877963 
C 384.150493 240.513898 385.013127 240.871213 385.912474 240.871213 
z
" clip-path="url(#p2dad04a329)" style="fill: #4c72b0; fill-opacity: 0.72; stroke: #ffffff; stroke-opacity: 0.72"/>
    <path d="M 484.500657 216.189019 
C 485.400005 216.189019 486.262638 215.831704 486.898573 215.19577 
C 487.534508 214.559835 487.891822 213.697201 487.891822 212.797854 
C 487.891822 211.898506 487.534508 211.035873 486.898573 210.399938 
C 486.262638 209.764003 485.400005 209.406689 484.500657 209.406689 
C 483.60131 209.406689 482.738676 209.764003 482.102741 210.399938 
C 481.466807 211.035873 481.109492 211.898506 481.109492 212.797854 
C 481.109492 213.697201 481.466807 214.559835 482.102741 215.19577 
C 482.738676 215.831704 483.60131 216.189019 484.500657 216.189019 
z
" clip-path="url(#p2dad04a329)" style="fill: #4c72b0; fill-opacity: 0.72; stroke: #ffffff; stroke-opacity: 0.72"/>
    <path d="M 446.660179 223.594704 
C 447.559527 223.594704 448.42216 223.23739 449.058095 222.601455 
C 449.69403 221.96552 450.051344 221.102887 450.051344 220.203539 
C 450.051344 219.304192 449.69403 218.441558 449.058095 217.805624 
C 448.42216 217.169689 447.559527 216.812374 446.660179 216.812374 
C 445.760832 216.812374 444.898198 217.169689 444.262263 217.805624 
C 443.626329 218.441558 443.269014 219.304192 443.269014 220.203539 
C 443.269014 221.102887 443.626329 221.96552 444.262263 222.601455 
C 444.898198 223.23739 445.760832 223.594704 446.660179 223.594704 
z
" clip-path="url(#p2dad04a329)" style="fill: #4c72b0; fill-opacity: 0.72; stroke: #ffffff; stroke-opacity: 0.72"/>
    <path d="M 388.453396 292.767333 
C 389.352744 292.767333 390.215377 292.410019 390.851312 291.774084 
C 391.487247 291.138149 391.844561 290.275516 391.844561 289.376168 
C 391.844561 288.476821 391.487247 287.614187 390.851312 286.978253 
C 390.215377 286.342318 389.352744 285.985003 388.453396 285.985003 
C 387.554049 285.985003 386.691415 286.342318 386.05548 286.978253 
C 385.419546 287.614187 385.062231 288.476821 385.062231 289.376168 
C 385.062231 290.275516 385.419546 291.138149 386.05548 291.774084 
C 386.691415 292.410019 387.554049 292.767333 388.453396 292.767333 
z
" clip-path="url(#p2dad04a329)" style="fill: #4c72b0; fill-opacity: 0.72; stroke: #ffffff; stroke-opacity: 0.72"/>
    <path d="M 349.453486 137.335136 
C 350.352834 137.335136 351.215467 136.977822 351.851402 136.341887 
C 352.487337 135.705952 352.844651 134.843319 352.844651 133.943971 
C 352.844651 133.044624 352.487337 132.18199 351.851402 131.546055 
C 351.215467 130.910121 350.352834 130.552806 349.453486 130.552806 
C 348.554139 130.552806 347.691505 130.910121 347.05557 131.546055 
C 346.419636 132.18199 346.062321 133.044624 346.062321 133.943971 
C 346.062321 134.843319 346.419636 135.705952 347.05557 136.341887 
C 347.691505 136.977822 348.554139 137.335136 349.453486 137.335136 
z
" clip-path="url(#p2dad04a329)" style="fill: #4c72b0; fill-opacity: 0.72; stroke: #ffffff; stroke-opacity: 0.72"/>
    <path d="M 262.189513 213.233203 
C 263.08886 213.233203 263.951494 212.875888 264.587429 212.239954 
C 265.223363 211.604019 265.580678 210.741385 265.580678 209.842038 
C 265.580678 208.94269 265.223363 208.080057 264.587429 207.444122 
C 263.951494 206.808187 263.08886 206.450873 262.189513 206.450873 
C 261.290165 206.450873 260.427532 206.808187 259.791597 207.444122 
C 259.155662 208.080057 258.798348 208.94269 258.798348 209.842038 
C 258.798348 210.741385 259.155662 211.604019 259.791597 212.239954 
C 260.427532 212.875888 261.290165 213.233203 262.189513 213.233203 
z
" clip-path="url(#p2dad04a329)" style="fill: #4c72b0; fill-opacity: 0.72; stroke: #ffffff; stroke-opacity: 0.72"/>
    <path d="M 357.39612 58.133375 
C 360.573028 58.133375 363.620245 56.871176 365.866658 54.624764 
C 368.11307 52.378351 369.375269 49.331134 369.375269 46.154226 
C 369.375269 42.977319 368.11307 39.930102 365.866658 37.683689 
C 363.620245 35.437276 360.573028 34.175078 357.39612 34.175078 
C 354.219213 34.175078 351.171996 35.437276 348.925583 37.683689 
C 346.679171 39.930102 345.416972 42.977319 345.416972 46.154226 
C 345.416972 49.331134 346.679171 52.378351 348.925583 54.624764 
C 351.171996 56.871176 354.219213 58.133375 357.39612 58.133375 
z
" clip-path="url(#p2dad04a329)" style="fill: #4c72b0; fill-opacity: 0.72; stroke: #ffffff; stroke-opacity: 0.72"/>
    <path d="M 206.895555 221.373 
C 207.794902 221.373 208.657536 221.015685 209.293471 220.379751 
C 209.929405 219.743816 210.28672 218.881182 210.28672 217.981835 
C 210.28672 217.082487 209.929405 216.219854 209.293471 215.583919 
C 208.657536 214.947984 207.794902 214.59067 206.895555 214.59067 
C 205.996208 214.59067 205.133574 214.947984 204.497639 215.583919 
C 203.861705 216.219854 203.50439 217.082487 203.50439 217.981835 
C 203.50439 218.881182 203.861705 219.743816 204.497639 220.379751 
C 205.133574 221.015685 205.996208 221.373 206.895555 221.373 
z
" clip-path="url(#p2dad04a329)" style="fill: #4c72b0; fill-opacity: 0.72; stroke: #ffffff; stroke-opacity: 0.72"/>
    <path d="M 115.863579 254.198653 
C 116.762926 254.198653 117.62556 253.841339 118.261495 253.205404 
C 118.897429 252.569469 119.254744 251.706836 119.254744 250.807488 
C 119.254744 249.908141 118.897429 249.045507 118.261495 248.409572 
C 117.62556 247.773638 116.762926 247.416323 115.863579 247.416323 
C 114.964232 247.416323 114.101598 247.773638 113.465663 248.409572 
C 112.829729 249.045507 112.472414 249.908141 112.472414 250.807488 
C 112.472414 251.706836 112.829729 252.569469 113.465663 253.205404 
C 114.101598 253.841339 114.964232 254.198653 115.863579 254.198653 
z
" clip-path="url(#p2dad04a329)" style="fill: #4c72b0; fill-opacity: 0.72; stroke: #ffffff; stroke-opacity: 0.72"/>
    <path d="M 76.784916 215.437087 
C 77.684264 215.437087 78.546897 215.079772 79.182832 214.443838 
C 79.818767 213.807903 80.176081 212.94527 80.176081 212.045922 
C 80.176081 211.146575 79.818767 210.283941 79.182832 209.648006 
C 78.546897 209.012072 77.684264 208.654757 76.784916 208.654757 
C 75.885569 208.654757 75.022935 209.012072 74.387001 209.648006 
C 73.751066 210.283941 73.393751 211.146575 73.393751 212.045922 
C 73.393751 212.94527 73.751066 213.807903 74.387001 214.443838 
C 75.022935 215.079772 75.885569 215.437087 76.784916 215.437087 
z
" clip-path="url(#p2dad04a329)" style="fill: #4c72b0; fill-opacity: 0.72; stroke: #ffffff; stroke-opacity: 0.72"/>
    <path d="M 132.019407 248.283083 
C 132.918754 248.283083 133.781388 247.925769 134.417322 247.289834 
C 135.053257 246.6539 135.410572 245.791266 135.410572 244.891918 
C 135.410572 243.992571 135.053257 243.129937 134.417322 242.494003 
C 133.781388 241.858068 132.918754 241.500753 132.019407 241.500753 
C 131.120059 241.500753 130.257426 241.858068 129.621491 242.494003 
C 128.985556 243.129937 128.628242 243.992571 128.628242 244.891918 
C 128.628242 245.791266 128.985556 246.6539 129.621491 247.289834 
C 130.257426 247.925769 131.120059 248.283083 132.019407 248.283083 
z
" clip-path="url(#p2dad04a329)" style="fill: #4c72b0; fill-opacity: 0.72; stroke: #ffffff; stroke-opacity: 0.72"/>
    <path d="M 194.899871 230.328671 
C 195.799218 230.328671 196.661852 229.971357 197.297787 229.335422 
C 197.933721 228.699487 198.291036 227.836854 198.291036 226.937506 
C 198.291036 226.038159 197.933721 225.175525 197.297787 224.539591 
C 196.661852 223.903656 195.799218 223.546341 194.899871 223.546341 
C 194.000524 223.546341 193.13789 223.903656 192.501955 224.539591 
C 191.866021 225.175525 191.508706 226.038159 191.508706 226.937506 
C 191.508706 227.836854 191.866021 228.699487 192.501955 229.335422 
C 193.13789 229.971357 194.000524 230.328671 194.899871 230.328671 
z
" clip-path="url(#p2dad04a329)" style="fill: #4c72b0; fill-opacity: 0.72; stroke: #ffffff; stroke-opacity: 0.72"/>
    <path d="M 390.064484 199.077057 
C 390.963832 199.077057 391.826466 198.719743 392.4624 198.083808 
C 393.098335 197.447873 393.455649 196.58524 393.455649 195.685892 
C 393.455649 194.786545 393.098335 193.923911 392.4624 193.287977 
C 391.826466 192.652042 390.963832 192.294727 390.064484 192.294727 
C 389.165137 192.294727 388.302503 192.652042 387.666569 193.287977 
C 387.030634 193.923911 386.673319 194.786545 386.673319 195.685892 
C 386.673319 196.58524 387.030634 197.447873 387.666569 198.083808 
C 388.302503 198.719743 389.165137 199.077057 390.064484 199.077057 
z
" clip-path="url(#p2dad04a329)" style="fill: #4c72b0; fill-opacity: 0.72; stroke: #ffffff; stroke-opacity: 0.72"/>
    <path d="M 205.520773 240.960881 
C 206.42012 240.960881 207.282754 240.603567 207.918689 239.967632 
C 208.554623 239.331697 208.911938 238.469064 208.911938 237.569716 
C 208.911938 236.670369 208.554623 235.807735 207.918689 235.1718 
C 207.282754 234.535866 206.42012 234.178551 205.520773 234.178551 
C 204.621426 234.178551 203.758792 234.535866 203.122857 235.1718 
C 202.486923 235.807735 202.129608 236.670369 202.129608 237.569716 
C 202.129608 238.469064 202.486923 239.331697 203.122857 239.967632 
C 203.758792 240.603567 204.621426 240.960881 205.520773 240.960881 
z
" clip-path="url(#p2dad04a329)" style="fill: #4c72b0; fill-opacity: 0.72; stroke: #ffffff; stroke-opacity: 0.72"/>
    <path d="M 130.522306 178.765094 
C 131.421653 178.765094 132.284287 178.40778 132.920222 177.771845 
C 133.556156 177.13591 133.913471 176.273277 133.913471 175.373929 
C 133.913471 174.474582 133.556156 173.611948 132.920222 172.976014 
C 132.284287 172.340079 131.421653 171.982764 130.522306 171.982764 
C 129.622958 171.982764 128.760325 172.340079 128.12439 172.976014 
C 127.488455 173.611948 127.131141 174.474582 127.131141 175.373929 
C 127.131141 176.273277 127.488455 177.13591 128.12439 177.771845 
C 128.760325 178.40778 129.622958 178.765094 130.522306 178.765094 
z
" clip-path="url(#p2dad04a329)" style="fill: #4c72b0; fill-opacity: 0.72; stroke: #ffffff; stroke-opacity: 0.72"/>
    <path d="M 123.681619 244.948896 
C 124.580966 244.948896 125.4436 244.591581 126.079534 243.955647 
C 126.715469 243.319712 127.072784 242.457078 127.072784 241.557731 
C 127.072784 240.658383 126.715469 239.79575 126.079534 239.159815 
C 125.4436 238.52388 124.580966 238.166566 123.681619 238.166566 
C 122.782271 238.166566 121.919638 238.52388 121.283703 239.159815 
C 120.647768 239.79575 120.290454 240.658383 120.290454 241.557731 
C 120.290454 242.457078 120.647768 243.319712 121.283703 243.955647 
C 121.919638 244.591581 122.782271 244.948896 123.681619 244.948896 
z
" clip-path="url(#p2dad04a329)" style="fill: #4c72b0; fill-opacity: 0.72; stroke: #ffffff; stroke-opacity: 0.72"/>
    <path d="M 446.898264 185.758347 
C 447.797612 185.758347 448.660245 185.401033 449.29618 184.765098 
C 449.932115 184.129163 450.289429 183.26653 450.289429 182.367182 
C 450.289429 181.467835 449.932115 180.605201 449.29618 179.969266 
C 448.660245 179.333332 447.797612 178.976017 446.898264 178.976017 
C 445.998917 178.976017 445.136283 179.333332 444.500349 179.969266 
C 443.864414 180.605201 443.507099 181.467835 443.507099 182.367182 
C 443.507099 183.26653 443.864414 184.129163 444.500349 184.765098 
C 445.136283 185.401033 445.998917 185.758347 446.898264 185.758347 
z
" clip-path="url(#p2dad04a329)" style="fill: #4c72b0; fill-opacity: 0.72; stroke: #ffffff; stroke-opacity: 0.72"/>
    <path d="M 167.678834 256.00691 
C 168.578181 256.00691 169.440815 255.649595 170.076749 255.013661 
C 170.712684 254.377726 171.069999 253.515092 171.069999 252.615745 
C 171.069999 251.716397 170.712684 250.853764 170.076749 250.217829 
C 169.440815 249.581894 168.578181 249.22458 167.678834 249.22458 
C 166.779486 249.22458 165.916853 249.581894 165.280918 250.217829 
C 164.644983 250.853764 164.287669 251.716397 164.287669 252.615745 
C 164.287669 253.515092 164.644983 254.377726 165.280918 255.013661 
C 165.916853 255.649595 166.779486 256.00691 167.678834 256.00691 
z
" clip-path="url(#p2dad04a329)" style="fill: #4c72b0; fill-opacity: 0.72; stroke: #ffffff; stroke-opacity: 0.72"/>
    <path d="M 130.550527 251.562101 
C 131.449875 251.562101 132.312508 251.204786 132.948443 250.568852 
C 133.584378 249.932917 133.941692 249.070283 133.941692 248.170936 
C 133.941692 247.271589 133.584378 246.408955 132.948443 245.77302 
C 132.312508 245.137086 131.449875 244.779771 130.550527 244.779771 
C 129.65118 244.779771 128.788546 245.137086 128.152612 245.77302 
C 127.516677 246.408955 127.159362 247.271589 127.159362 248.170936 
C 127.159362 249.070283 127.516677 249.932917 128.152612 250.568852 
C 128.788546 251.204786 129.65118 251.562101 130.550527 251.562101 
z
" clip-path="url(#p2dad04a329)" style="fill: #4c72b0; fill-opacity: 0.72; stroke: #ffffff; stroke-opacity: 0.72"/>
    <path d="M 362.246623 120.298076 
C 363.14597 120.298076 364.008604 119.940761 364.644539 119.304827 
C 365.280473 118.668892 365.637788 117.806258 365.637788 116.906911 
C 365.637788 116.007564 365.280473 115.14493 364.644539 114.508995 
C 364.008604 113.873061 363.14597 113.515746 362.246623 113.515746 
C 361.347275 113.515746 360.484642 113.873061 359.848707 114.508995 
C 359.212772 115.14493 358.855458 116.007564 358.855458 116.906911 
C 358.855458 117.806258 359.212772 118.668892 359.848707 119.304827 
C 360.484642 119.940761 361.347275 120.298076 362.246623 120.298076 
z
" clip-path="url(#p2dad04a329)" style="fill: #4c72b0; fill-opacity: 0.72; stroke: #ffffff; stroke-opacity: 0.72"/>
    <path d="M 377.969301 95.585131 
C 381.442348 95.585131 384.773615 94.205275 387.22943 91.74946 
C 389.685246 89.293645 391.065102 85.962377 391.065102 82.48933 
C 391.065102 79.016283 389.685246 75.685016 387.22943 73.229201 
C 384.773615 70.773385 381.442348 69.393529 377.969301 69.393529 
C 374.496254 69.393529 371.164986 70.773385 368.709171 73.229201 
C 366.253356 75.685016 364.8735 79.016283 364.8735 82.48933 
C 364.8735 85.962377 366.253356 89.293645 368.709171 91.74946 
C 371.164986 94.205275 374.496254 95.585131 377.969301 95.585131 
z
" clip-path="url(#p2dad04a329)" style="fill: #4c72b0; fill-opacity: 0.72; stroke: #ffffff; stroke-opacity: 0.72"/>
    <path d="M 483.233376 270.254216 
C 484.132724 270.254216 484.995358 269.896901 485.631292 269.260966 
C 486.267227 268.625032 486.624541 267.762398 486.624541 266.863051 
C 486.624541 265.963703 486.267227 265.101069 485.631292 264.465135 
C 484.995358 263.8292 484.132724 263.471886 483.233376 263.471886 
C 482.334029 263.471886 481.471395 263.8292 480.835461 264.465135 
C 480.199526 265.101069 479.842211 265.963703 479.842211 266.863051 
C 479.842211 267.762398 480.199526 268.625032 480.835461 269.260966 
C 481.471395 269.896901 482.334029 270.254216 483.233376 270.254216 
z
" clip-path="url(#p2dad04a329)" style="fill: #4c72b0; fill-opacity: 0.72; stroke: #ffffff; stroke-opacity: 0.72"/>
    <path d="M 353.068721 47.17552 
C 353.968068 47.17552 354.830702 46.818206 355.466636 46.182271 
C 356.102571 45.546337 356.459886 44.683703 356.459886 43.784355 
C 356.459886 42.885008 356.102571 42.022374 355.466636 41.38644 
C 354.830702 40.750505 353.968068 40.39319 353.068721 40.39319 
C 352.169373 40.39319 351.306739 40.750505 350.670805 41.38644 
C 350.03487 42.022374 349.677556 42.885008 349.677556 43.784355 
C 349.677556 44.683703 350.03487 45.546337 350.670805 46.182271 
C 351.306739 46.818206 352.169373 47.17552 353.068721 47.17552 
z
" clip-path="url(#p2dad04a329)" style="fill: #4c72b0; fill-opacity: 0.72; stroke: #ffffff; stroke-opacity: 0.72"/>
    <path d="M 466.076072 256.566582 
C 468.440696 256.566582 470.70879 255.627106 472.380832 253.955064 
C 474.052874 252.283022 474.992349 250.014929 474.992349 247.650304 
C 474.992349 245.28568 474.052874 243.017586 472.380832 241.345544 
C 470.70879 239.673502 468.440696 238.734027 466.076072 238.734027 
C 463.711447 238.734027 461.443354 239.673502 459.771312 241.345544 
C 458.09927 243.017586 457.159794 245.28568 457.159794 247.650304 
C 457.159794 250.014929 458.09927 252.283022 459.771312 253.955064 
C 461.443354 255.627106 463.711447 256.566582 466.076072 256.566582 
z
" clip-path="url(#p2dad04a329)" style="fill: #4c72b0; fill-opacity: 0.72; stroke: #ffffff; stroke-opacity: 0.72"/>
    <path d="M 486.572727 305.053524 
C 488.548446 305.053524 490.44351 304.268563 491.840554 302.871519 
C 493.237598 301.474475 494.022559 299.579411 494.022559 297.603692 
C 494.022559 295.627973 493.237598 293.732909 491.840554 292.335865 
C 490.44351 290.938821 488.548446 290.15386 486.572727 290.15386 
C 484.597009 290.15386 482.701944 290.938821 481.3049 292.335865 
C 479.907856 293.732909 479.122895 295.627973 479.122895 297.603692 
C 479.122895 299.579411 479.907856 301.474475 481.3049 302.871519 
C 482.701944 304.268563 484.597009 305.053524 486.572727 305.053524 
z
" clip-path="url(#p2dad04a329)" style="fill: #4c72b0; fill-opacity: 0.72; stroke: #ffffff; stroke-opacity: 0.72"/>
    <path d="M 356.82193 182.877584 
C 357.721277 182.877584 358.583911 182.520269 359.219845 181.884335 
C 359.85578 181.2484 360.213095 180.385766 360.213095 179.486419 
C 360.213095 178.587072 359.85578 177.724438 359.219845 177.088503 
C 358.583911 176.452569 357.721277 176.095254 356.82193 176.095254 
C 355.922582 176.095254 355.059949 176.452569 354.424014 177.088503 
C 353.788079 177.724438 353.430765 178.587072 353.430765 179.486419 
C 353.430765 180.385766 353.788079 181.2484 354.424014 181.884335 
C 355.059949 182.520269 355.922582 182.877584 356.82193 182.877584 
z
" clip-path="url(#p2dad04a329)" style="fill: #4c72b0; fill-opacity: 0.72; stroke: #ffffff; stroke-opacity: 0.72"/>
    <path d="M 338.204256 289.966332 
C 339.103604 289.966332 339.966237 289.609017 340.602172 288.973083 
C 341.238107 288.337148 341.595421 287.474514 341.595421 286.575167 
C 341.595421 285.675819 341.238107 284.813186 340.602172 284.177251 
C 339.966237 283.541316 339.103604 283.184002 338.204256 283.184002 
C 337.304909 283.184002 336.442275 283.541316 335.806341 284.177251 
C 335.170406 284.813186 334.813091 285.675819 334.813091 286.575167 
C 334.813091 287.474514 335.170406 288.337148 335.806341 288.973083 
C 336.442275 289.609017 337.304909 289.966332 338.204256 289.966332 
z
" clip-path="url(#p2dad04a329)" style="fill: #4c72b0; fill-opacity: 0.72; stroke: #ffffff; stroke-opacity: 0.72"/>
    <path d="M 453.631157 208.176752 
C 454.530504 208.176752 455.393138 207.819437 456.029073 207.183502 
C 456.665007 206.547568 457.022322 205.684934 457.022322 204.785587 
C 457.022322 203.886239 456.665007 203.023606 456.029073 202.387671 
C 455.393138 201.751736 454.530504 201.394422 453.631157 201.394422 
C 452.731809 201.394422 451.869176 201.751736 451.233241 202.387671 
C 450.597307 203.023606 450.239992 203.886239 450.239992 204.785587 
C 450.239992 205.684934 450.597307 206.547568 451.233241 207.183502 
C 451.869176 207.819437 452.731809 208.176752 453.631157 208.176752 
z
" clip-path="url(#p2dad04a329)" style="fill: #4c72b0; fill-opacity: 0.72; stroke: #ffffff; stroke-opacity: 0.72"/>
    <path d="M 448.859282 201.942104 
C 449.758629 201.942104 450.621263 201.58479 451.257197 200.948855 
C 451.893132 200.31292 452.250447 199.450287 452.250447 198.550939 
C 452.250447 197.651592 451.893132 196.788958 451.257197 196.153024 
C 450.621263 195.517089 449.758629 195.159774 448.859282 195.159774 
C 447.959934 195.159774 447.097301 195.517089 446.461366 196.153024 
C 445.825431 196.788958 445.468117 197.651592 445.468117 198.550939 
C 445.468117 199.450287 445.825431 200.31292 446.461366 200.948855 
C 447.097301 201.58479 447.959934 201.942104 448.859282 201.942104 
z
" clip-path="url(#p2dad04a329)" style="fill: #4c72b0; fill-opacity: 0.72; stroke: #ffffff; stroke-opacity: 0.72"/>
    <path d="M 195.580228 210.850771 
C 196.479575 210.850771 197.342209 210.493456 197.978143 209.857522 
C 198.614078 209.221587 198.971393 208.358953 198.971393 207.459606 
C 198.971393 206.560258 198.614078 205.697625 197.978143 205.06169 
C 197.342209 204.425755 196.479575 204.068441 195.580228 204.068441 
C 194.68088 204.068441 193.818247 204.425755 193.182312 205.06169 
C 192.546377 205.697625 192.189063 206.560258 192.189063 207.459606 
C 192.189063 208.358953 192.546377 209.221587 193.182312 209.857522 
C 193.818247 210.493456 194.68088 210.850771 195.580228 210.850771 
z
" clip-path="url(#p2dad04a329)" style="fill: #4c72b0; fill-opacity: 0.72; stroke: #ffffff; stroke-opacity: 0.72"/>
    <path d="M 305.192546 261.248848 
C 306.091893 261.248848 306.954527 260.891533 307.590462 260.255599 
C 308.226396 259.619664 308.583711 258.75703 308.583711 257.857683 
C 308.583711 256.958335 308.226396 256.095702 307.590462 255.459767 
C 306.954527 254.823832 306.091893 254.466518 305.192546 254.466518 
C 304.293198 254.466518 303.430565 254.823832 302.79463 255.459767 
C 302.158695 256.095702 301.801381 256.958335 301.801381 257.857683 
C 301.801381 258.75703 302.158695 259.619664 302.79463 260.255599 
C 303.430565 260.891533 304.293198 261.248848 305.192546 261.248848 
z
" clip-path="url(#p2dad04a329)" style="fill: #4c72b0; fill-opacity: 0.72; stroke: #ffffff; stroke-opacity: 0.72"/>
    <path d="M 319.955809 269.829142 
C 320.855157 269.829142 321.71779 269.471828 322.353725 268.835893 
C 322.98966 268.199958 323.346974 267.337325 323.346974 266.437977 
C 323.346974 265.53863 322.98966 264.675996 322.353725 264.040061 
C 321.71779 263.404127 320.855157 263.046812 319.955809 263.046812 
C 319.056462 263.046812 318.193828 263.404127 317.557894 264.040061 
C 316.921959 264.675996 316.564644 265.53863 316.564644 266.437977 
C 316.564644 267.337325 316.921959 268.199958 317.557894 268.835893 
C 318.193828 269.471828 319.056462 269.829142 319.955809 269.829142 
z
" clip-path="url(#p2dad04a329)" style="fill: #4c72b0; fill-opacity: 0.72; stroke: #ffffff; stroke-opacity: 0.72"/>
    <path d="M 183.885696 309.301431 
C 184.785043 309.301431 185.647677 308.944117 186.283612 308.308182 
C 186.919546 307.672247 187.276861 306.809614 187.276861 305.910266 
C 187.276861 305.010919 186.919546 304.148285 186.283612 303.512351 
C 185.647677 302.876416 184.785043 302.519101 183.885696 302.519101 
C 182.986348 302.519101 182.123715 302.876416 181.48778 303.512351 
C 180.851845 304.148285 180.494531 305.010919 180.494531 305.910266 
C 180.494531 306.809614 180.851845 307.672247 181.48778 308.308182 
C 182.123715 308.944117 182.986348 309.301431 183.885696 309.301431 
z
" clip-path="url(#p2dad04a329)" style="fill: #4c72b0; fill-opacity: 0.72; stroke: #ffffff; stroke-opacity: 0.72"/>
    <path d="M 135.799244 197.165509 
C 136.698591 197.165509 137.561225 196.808195 138.19716 196.17226 
C 138.833094 195.536325 139.190409 194.673692 139.190409 193.774344 
C 139.190409 192.874997 138.833094 192.012363 138.19716 191.376428 
C 137.561225 190.740494 136.698591 190.383179 135.799244 190.383179 
C 134.899897 190.383179 134.037263 190.740494 133.401328 191.376428 
C 132.765394 192.012363 132.408079 192.874997 132.408079 193.774344 
C 132.408079 194.673692 132.765394 195.536325 133.401328 196.17226 
C 134.037263 196.808195 134.899897 197.165509 135.799244 197.165509 
z
" clip-path="url(#p2dad04a329)" style="fill: #4c72b0; fill-opacity: 0.72; stroke: #ffffff; stroke-opacity: 0.72"/>
    <path d="M 302.798794 284.443512 
C 303.698141 284.443512 304.560775 284.086197 305.196709 283.450263 
C 305.832644 282.814328 306.189959 281.951694 306.189959 281.052347 
C 306.189959 280.153 305.832644 279.290366 305.196709 278.654431 
C 304.560775 278.018497 303.698141 277.661182 302.798794 277.661182 
C 301.899446 277.661182 301.036813 278.018497 300.400878 278.654431 
C 299.764943 279.290366 299.407629 280.153 299.407629 281.052347 
C 299.407629 281.951694 299.764943 282.814328 300.400878 283.450263 
C 301.036813 284.086197 301.899446 284.443512 302.798794 284.443512 
z
" clip-path="url(#p2dad04a329)" style="fill: #4c72b0; fill-opacity: 0.72; stroke: #ffffff; stroke-opacity: 0.72"/>
    <path d="M 173.958435 186.643532 
C 174.857782 186.643532 175.720416 186.286217 176.35635 185.650282 
C 176.992285 185.014348 177.3496 184.151714 177.3496 183.252367 
C 177.3496 182.353019 176.992285 181.490386 176.35635 180.854451 
C 175.720416 180.218516 174.857782 179.861202 173.958435 179.861202 
C 173.059087 179.861202 172.196454 180.218516 171.560519 180.854451 
C 170.924584 181.490386 170.56727 182.353019 170.56727 183.252367 
C 170.56727 184.151714 170.924584 185.014348 171.560519 185.650282 
C 172.196454 186.286217 173.059087 186.643532 173.958435 186.643532 
z
" clip-path="url(#p2dad04a329)" style="fill: #4c72b0; fill-opacity: 0.72; stroke: #ffffff; stroke-opacity: 0.72"/>
    <path d="M 275.374651 304.294542 
C 276.273998 304.294542 277.136632 303.937227 277.772567 303.301293 
C 278.408501 302.665358 278.765816 301.802724 278.765816 300.903377 
C 278.765816 300.004029 278.408501 299.141396 277.772567 298.505461 
C 277.136632 297.869526 276.273998 297.512212 275.374651 297.512212 
C 274.475303 297.512212 273.61267 297.869526 272.976735 298.505461 
C 272.340801 299.141396 271.983486 300.004029 271.983486 300.903377 
C 271.983486 301.802724 272.340801 302.665358 272.976735 303.301293 
C 273.61267 303.937227 274.475303 304.294542 275.374651 304.294542 
z
" clip-path="url(#p2dad04a329)" style="fill: #4c72b0; fill-opacity: 0.72; stroke: #ffffff; stroke-opacity: 0.72"/>
    <path d="M 148.600125 224.026442 
C 149.499472 224.026442 150.362106 223.669128 150.998041 223.033193 
C 151.633975 222.397258 151.99129 221.534625 151.99129 220.635277 
C 151.99129 219.73593 151.633975 218.873296 150.998041 218.237362 
C 150.362106 217.601427 149.499472 217.244112 148.600125 217.244112 
C 147.700777 217.244112 146.838144 217.601427 146.202209 218.237362 
C 145.566274 218.873296 145.20896 219.73593 145.20896 220.635277 
C 145.20896 221.534625 145.566274 222.397258 146.202209 223.033193 
C 146.838144 223.669128 147.700777 224.026442 148.600125 224.026442 
z
" clip-path="url(#p2dad04a329)" style="fill: #4c72b0; fill-opacity: 0.72; stroke: #ffffff; stroke-opacity: 0.72"/>
    <path d="M 180.056046 127.434981 
C 180.955393 127.434981 181.818027 127.077667 182.453962 126.441732 
C 183.089896 125.805797 183.447211 124.943164 183.447211 124.043816 
C 183.447211 123.144469 183.089896 122.281835 182.453962 121.6459 
C 181.818027 121.009966 180.955393 120.652651 180.056046 120.652651 
C 179.156698 120.652651 178.294065 121.009966 177.65813 121.6459 
C 177.022195 122.281835 176.664881 123.144469 176.664881 124.043816 
C 176.664881 124.943164 177.022195 125.805797 177.65813 126.441732 
C 178.294065 127.077667 179.156698 127.434981 180.056046 127.434981 
z
" clip-path="url(#p2dad04a329)" style="fill: #4c72b0; fill-opacity: 0.72; stroke: #ffffff; stroke-opacity: 0.72"/>
    <path d="M 161.890652 241.40351 
C 162.789999 241.40351 163.652633 241.046195 164.288568 240.41026 
C 164.924502 239.774326 165.281817 238.911692 165.281817 238.012345 
C 165.281817 237.112997 164.924502 236.250364 164.288568 235.614429 
C 163.652633 234.978494 162.789999 234.62118 161.890652 234.62118 
C 160.991304 234.62118 160.128671 234.978494 159.492736 235.614429 
C 158.856802 236.250364 158.499487 237.112997 158.499487 238.012345 
C 158.499487 238.911692 158.856802 239.774326 159.492736 240.41026 
C 160.128671 241.046195 160.991304 241.40351 161.890652 241.40351 
z
" clip-path="url(#p2dad04a329)" style="fill: #4c72b0; fill-opacity: 0.72; stroke: #ffffff; stroke-opacity: 0.72"/>
    <path d="M 360.364287 133.753686 
C 363.405462 133.753686 366.322488 132.545414 368.472924 130.394978 
C 370.62336 128.244542 371.831632 125.327516 371.831632 122.286341 
C 371.831632 119.245165 370.62336 116.328139 368.472924 114.177703 
C 366.322488 112.027268 363.405462 110.818996 360.364287 110.818996 
C 357.323111 110.818996 354.406085 112.027268 352.255649 114.177703 
C 350.105213 116.328139 348.896942 119.245165 348.896942 122.286341 
C 348.896942 125.327516 350.105213 128.244542 352.255649 130.394978 
C 354.406085 132.545414 357.323111 133.753686 360.364287 133.753686 
z
" clip-path="url(#p2dad04a329)" style="fill: #4c72b0; fill-opacity: 0.72; stroke: #ffffff; stroke-opacity: 0.72"/>
    <path d="M 471.194941 296.602872 
C 472.094289 296.602872 472.956922 296.245558 473.592857 295.609623 
C 474.228792 294.973688 474.586106 294.111055 474.586106 293.211707 
C 474.586106 292.31236 474.228792 291.449726 473.592857 290.813791 
C 472.956922 290.177857 472.094289 289.820542 471.194941 289.820542 
C 470.295594 289.820542 469.43296 290.177857 468.797025 290.813791 
C 468.161091 291.449726 467.803776 292.31236 467.803776 293.211707 
C 467.803776 294.111055 468.161091 294.973688 468.797025 295.609623 
C 469.43296 296.245558 470.295594 296.602872 471.194941 296.602872 
z
" clip-path="url(#p2dad04a329)" style="fill: #4c72b0; fill-opacity: 0.72; stroke: #ffffff; stroke-opacity: 0.72"/>
    <path d="M 476.571612 179.612785 
C 479.269655 179.612785 481.857556 178.540842 483.76536 176.633038 
C 485.673164 174.725234 486.745107 172.137333 486.745107 169.43929 
C 486.745107 166.741248 485.673164 164.153347 483.76536 162.245543 
C 481.857556 160.337739 479.269655 159.265795 476.571612 159.265795 
C 473.87357 159.265795 471.285669 160.337739 469.377865 162.245543 
C 467.470061 164.153347 466.398117 166.741248 466.398117 169.43929 
C 466.398117 172.137333 467.470061 174.725234 469.377865 176.633038 
C 471.285669 178.540842 473.87357 179.612785 476.571612 179.612785 
z
" clip-path="url(#p2dad04a329)" style="fill: #4c72b0; fill-opacity: 0.72; stroke: #ffffff; stroke-opacity: 0.72"/>
    <path d="M 459.957271 248.880675 
C 460.856618 248.880675 461.719252 248.523361 462.355186 247.887426 
C 462.991121 247.251491 463.348436 246.388858 463.348436 245.48951 
C 463.348436 244.590163 462.991121 243.727529 462.355186 243.091594 
C 461.719252 242.45566 460.856618 242.098345 459.957271 242.098345 
C 459.057923 242.098345 458.195289 242.45566 457.559355 243.091594 
C 456.92342 243.727529 456.566106 244.590163 456.566106 245.48951 
C 456.566106 246.388858 456.92342 247.251491 457.559355 247.887426 
C 458.195289 248.523361 459.057923 248.880675 459.957271 248.880675 
z
" clip-path="url(#p2dad04a329)" style="fill: #4c72b0; fill-opacity: 0.72; stroke: #ffffff; stroke-opacity: 0.72"/>
    <path d="M 360.827059 233.354535 
C 361.726407 233.354535 362.58904 232.997221 363.224975 232.361286 
C 363.86091 231.725351 364.218224 230.862718 364.218224 229.96337 
C 364.218224 229.064023 363.86091 228.201389 363.224975 227.565454 
C 362.58904 226.92952 361.726407 226.572205 360.827059 226.572205 
C 359.927712 226.572205 359.065078 226.92952 358.429143 227.565454 
C 357.793209 228.201389 357.435894 229.064023 357.435894 229.96337 
C 357.435894 230.862718 357.793209 231.725351 358.429143 232.361286 
C 359.065078 232.997221 359.927712 233.354535 360.827059 233.354535 
z
" clip-path="url(#p2dad04a329)" style="fill: #4c72b0; fill-opacity: 0.72; stroke: #ffffff; stroke-opacity: 0.72"/>
    <path d="M 232.196658 210.40955 
C 233.096006 210.40955 233.958639 210.052235 234.594574 209.416301 
C 235.230509 208.780366 235.587823 207.917732 235.587823 207.018385 
C 235.587823 206.119037 235.230509 205.256404 234.594574 204.620469 
C 233.958639 203.984534 233.096006 203.62722 232.196658 203.62722 
C 231.297311 203.62722 230.434677 203.984534 229.798743 204.620469 
C 229.162808 205.256404 228.805493 206.119037 228.805493 207.018385 
C 228.805493 207.917732 229.162808 208.780366 229.798743 209.416301 
C 230.434677 210.052235 231.297311 210.40955 232.196658 210.40955 
z
" clip-path="url(#p2dad04a329)" style="fill: #4c72b0; fill-opacity: 0.72; stroke: #ffffff; stroke-opacity: 0.72"/>
    <path d="M 194.306928 175.250075 
C 195.206275 175.250075 196.068909 174.892761 196.704844 174.256826 
C 197.340778 173.620891 197.698093 172.758258 197.698093 171.85891 
C 197.698093 170.959563 197.340778 170.096929 196.704844 169.460995 
C 196.068909 168.82506 195.206275 168.467745 194.306928 168.467745 
C 193.40758 168.467745 192.544947 168.82506 191.909012 169.460995 
C 191.273077 170.096929 190.915763 170.959563 190.915763 171.85891 
C 190.915763 172.758258 191.273077 173.620891 191.909012 174.256826 
C 192.544947 174.892761 193.40758 175.250075 194.306928 175.250075 
z
" clip-path="url(#p2dad04a329)" style="fill: #4c72b0; fill-opacity: 0.72; stroke: #ffffff; stroke-opacity: 0.72"/>
    <path d="M 350.58266 69.738156 
C 351.482008 69.738156 352.344641 69.380842 352.980576 68.744907 
C 353.616511 68.108972 353.973825 67.246339 353.973825 66.346991 
C 353.973825 65.447644 353.616511 64.58501 352.980576 63.949075 
C 352.344641 63.313141 351.482008 62.955826 350.58266 62.955826 
C 349.683313 62.955826 348.820679 63.313141 348.184745 63.949075 
C 347.54881 64.58501 347.191495 65.447644 347.191495 66.346991 
C 347.191495 67.246339 347.54881 68.108972 348.184745 68.744907 
C 348.820679 69.380842 349.683313 69.738156 350.58266 69.738156 
z
" clip-path="url(#p2dad04a329)" style="fill: #4c72b0; fill-opacity: 0.72; stroke: #ffffff; stroke-opacity: 0.72"/>
    <path d="M 322.731873 321.001832 
C 323.63122 321.001832 324.493854 320.644517 325.129789 320.008582 
C 325.765723 319.372648 326.123038 318.510014 326.123038 317.610667 
C 326.123038 316.711319 325.765723 315.848686 325.129789 315.212751 
C 324.493854 314.576816 323.63122 314.219502 322.731873 314.219502 
C 321.832525 314.219502 320.969892 314.576816 320.333957 315.212751 
C 319.698022 315.848686 319.340708 316.711319 319.340708 317.610667 
C 319.340708 318.510014 319.698022 319.372648 320.333957 320.008582 
C 320.969892 320.644517 321.832525 321.001832 322.731873 321.001832 
z
" clip-path="url(#p2dad04a329)" style="fill: #4c72b0; fill-opacity: 0.72; stroke: #ffffff; stroke-opacity: 0.72"/>
    <path d="M 409.994448 240.788502 
C 410.893795 240.788502 411.756429 240.431187 412.392363 239.795252 
C 413.028298 239.159318 413.385613 238.296684 413.385613 237.397337 
C 413.385613 236.497989 413.028298 235.635356 412.392363 234.999421 
C 411.756429 234.363486 410.893795 234.006172 409.994448 234.006172 
C 409.0951 234.006172 408.232467 234.363486 407.596532 234.999421 
C 406.960597 235.635356 406.603283 236.497989 406.603283 237.397337 
C 406.603283 238.296684 406.960597 239.159318 407.596532 239.795252 
C 408.232467 240.431187 409.0951 240.788502 409.994448 240.788502 
z
" clip-path="url(#p2dad04a329)" style="fill: #4c72b0; fill-opacity: 0.72; stroke: #ffffff; stroke-opacity: 0.72"/>
    <path d="M 168.646471 235.452007 
C 169.545819 235.452007 170.408452 235.094692 171.044387 234.458757 
C 171.680322 233.822823 172.037636 232.960189 172.037636 232.060842 
C 172.037636 231.161494 171.680322 230.298861 171.044387 229.662926 
C 170.408452 229.026991 169.545819 228.669677 168.646471 228.669677 
C 167.747124 228.669677 166.88449 229.026991 166.248556 229.662926 
C 165.612621 230.298861 165.255306 231.161494 165.255306 232.060842 
C 165.255306 232.960189 165.612621 233.822823 166.248556 234.458757 
C 166.88449 235.094692 167.747124 235.452007 168.646471 235.452007 
z
" clip-path="url(#p2dad04a329)" style="fill: #4c72b0; fill-opacity: 0.72; stroke: #ffffff; stroke-opacity: 0.72"/>
   </g>
   <g id="PathCollection_2">
    <path d="M 337.796322 92.765114 
C 338.695669 92.765114 339.558303 92.407799 340.194237 91.771864 
C 340.830172 91.13593 341.187487 90.273296 341.187487 89.373949 
C 341.187487 88.474601 340.830172 87.611967 340.194237 86.976033 
C 339.558303 86.340098 338.695669 85.982784 337.796322 85.982784 
C 336.896974 85.982784 336.03434 86.340098 335.398406 86.976033 
C 334.762471 87.611967 334.405157 88.474601 334.405157 89.373949 
C 334.405157 90.273296 334.762471 91.13593 335.398406 91.771864 
C 336.03434 92.407799 336.896974 92.765114 337.796322 92.765114 
z
" clip-path="url(#p2dad04a329)" style="fill: #e0b63e; fill-opacity: 0.72; stroke: #ffffff; stroke-opacity: 0.72"/>
    <path d="M 334.682125 230.480637 
C 335.581473 230.480637 336.444106 230.123322 337.080041 229.487388 
C 337.715976 228.851453 338.07329 227.988819 338.07329 227.089472 
C 338.07329 226.190124 337.715976 225.327491 337.080041 224.691556 
C 336.444106 224.055621 335.581473 223.698307 334.682125 223.698307 
C 333.782778 223.698307 332.920144 224.055621 332.284209 224.691556 
C 331.648275 225.327491 331.29096 226.190124 331.29096 227.089472 
C 331.29096 227.988819 331.648275 228.851453 332.284209 229.487388 
C 332.920144 230.123322 333.782778 230.480637 334.682125 230.480637 
z
" clip-path="url(#p2dad04a329)" style="fill: #e0b63e; fill-opacity: 0.72; stroke: #ffffff; stroke-opacity: 0.72"/>
    <path d="M 265.32566 186.533823 
C 266.225007 186.533823 267.087641 186.176509 267.723576 185.540574 
C 268.35951 184.904639 268.716825 184.042006 268.716825 183.142658 
C 268.716825 182.243311 268.35951 181.380677 267.723576 180.744742 
C 267.087641 180.108808 266.225007 179.751493 265.32566 179.751493 
C 264.426312 179.751493 263.563679 180.108808 262.927744 180.744742 
C 262.291809 181.380677 261.934495 182.243311 261.934495 183.142658 
C 261.934495 184.042006 262.291809 184.904639 262.927744 185.540574 
C 263.563679 186.176509 264.426312 186.533823 265.32566 186.533823 
z
" clip-path="url(#p2dad04a329)" style="fill: #e0b63e; fill-opacity: 0.72; stroke: #ffffff; stroke-opacity: 0.72"/>
    <path d="M 304.154753 165.860984 
C 305.0541 165.860984 305.916734 165.50367 306.552669 164.867735 
C 307.188603 164.2318 307.545918 163.369167 307.545918 162.469819 
C 307.545918 161.570472 307.188603 160.707838 306.552669 160.071903 
C 305.916734 159.435969 305.0541 159.078654 304.154753 159.078654 
C 303.255405 159.078654 302.392772 159.435969 301.756837 160.071903 
C 301.120902 160.707838 300.763588 161.570472 300.763588 162.469819 
C 300.763588 163.369167 301.120902 164.2318 301.756837 164.867735 
C 302.392772 165.50367 303.255405 165.860984 304.154753 165.860984 
z
" clip-path="url(#p2dad04a329)" style="fill: #e0b63e; fill-opacity: 0.72; stroke: #ffffff; stroke-opacity: 0.72"/>
    <path d="M 330.647738 124.942946 
C 331.547086 124.942946 332.409719 124.585632 333.045654 123.949697 
C 333.681588 123.313762 334.038903 122.451129 334.038903 121.551781 
C 334.038903 120.652434 333.681588 119.7898 333.045654 119.153865 
C 332.409719 118.517931 331.547086 118.160616 330.647738 118.160616 
C 329.748391 118.160616 328.885757 118.517931 328.249822 119.153865 
C 327.613888 119.7898 327.256573 120.652434 327.256573 121.551781 
C 327.256573 122.451129 327.613888 123.313762 328.249822 123.949697 
C 328.885757 124.585632 329.748391 124.942946 330.647738 124.942946 
z
" clip-path="url(#p2dad04a329)" style="fill: #e0b63e; fill-opacity: 0.72; stroke: #ffffff; stroke-opacity: 0.72"/>
    <path d="M 324.047559 183.950033 
C 324.946906 183.950033 325.80954 183.592719 326.445474 182.956784 
C 327.081409 182.320849 327.438724 181.458216 327.438724 180.558868 
C 327.438724 179.659521 327.081409 178.796887 326.445474 178.160953 
C 325.80954 177.525018 324.946906 177.167703 324.047559 177.167703 
C 323.148211 177.167703 322.285578 177.525018 321.649643 178.160953 
C 321.013708 178.796887 320.656394 179.659521 320.656394 180.558868 
C 320.656394 181.458216 321.013708 182.320849 321.649643 182.956784 
C 322.285578 183.592719 323.148211 183.950033 324.047559 183.950033 
z
" clip-path="url(#p2dad04a329)" style="fill: #e0b63e; fill-opacity: 0.72; stroke: #ffffff; stroke-opacity: 0.72"/>
    <path d="M 356.308368 74.426083 
C 359.108742 74.426083 361.794797 73.313483 363.77496 71.33332 
C 365.755124 69.353156 366.867724 66.667101 366.867724 63.866727 
C 366.867724 61.066353 365.755124 58.380298 363.77496 56.400135 
C 361.794797 54.419972 359.108742 53.307371 356.308368 53.307371 
C 353.507994 53.307371 350.821939 54.419972 348.841776 56.400135 
C 346.861612 58.380298 345.749012 61.066353 345.749012 63.866727 
C 345.749012 66.667101 346.861612 69.353156 348.841776 71.33332 
C 350.821939 73.313483 353.507994 74.426083 356.308368 74.426083 
z
" clip-path="url(#p2dad04a329)" style="fill: #e0b63e; fill-opacity: 0.72; stroke: #ffffff; stroke-opacity: 0.72"/>
    <path d="M 220.192455 126.20467 
C 221.091802 126.20467 221.954436 125.847355 222.590371 125.211421 
C 223.226305 124.575486 223.58362 123.712852 223.58362 122.813505 
C 223.58362 121.914157 223.226305 121.051524 222.590371 120.415589 
C 221.954436 119.779654 221.091802 119.42234 220.192455 119.42234 
C 219.293107 119.42234 218.430474 119.779654 217.794539 120.415589 
C 217.158604 121.051524 216.80129 121.914157 216.80129 122.813505 
C 216.80129 123.712852 217.158604 124.575486 217.794539 125.211421 
C 218.430474 125.847355 219.293107 126.20467 220.192455 126.20467 
z
" clip-path="url(#p2dad04a329)" style="fill: #e0b63e; fill-opacity: 0.72; stroke: #ffffff; stroke-opacity: 0.72"/>
    <path d="M 142.218778 254.019453 
C 143.118126 254.019453 143.980759 253.662138 144.616694 253.026203 
C 145.252629 252.390269 145.609943 251.527635 145.609943 250.628288 
C 145.609943 249.72894 145.252629 248.866307 144.616694 248.230372 
C 143.980759 247.594437 143.118126 247.237123 142.218778 247.237123 
C 141.319431 247.237123 140.456797 247.594437 139.820862 248.230372 
C 139.184928 248.866307 138.827613 249.72894 138.827613 250.628288 
C 138.827613 251.527635 139.184928 252.390269 139.820862 253.026203 
C 140.456797 253.662138 141.319431 254.019453 142.218778 254.019453 
z
" clip-path="url(#p2dad04a329)" style="fill: #e0b63e; fill-opacity: 0.72; stroke: #ffffff; stroke-opacity: 0.72"/>
    <path d="M 105.554209 242.029992 
C 106.453556 242.029992 107.31619 241.672677 107.952124 241.036742 
C 108.588059 240.400808 108.945374 239.538174 108.945374 238.638827 
C 108.945374 237.739479 108.588059 236.876846 107.952124 236.240911 
C 107.31619 235.604976 106.453556 235.247662 105.554209 235.247662 
C 104.654861 235.247662 103.792228 235.604976 103.156293 236.240911 
C 102.520358 236.876846 102.163044 237.739479 102.163044 238.638827 
C 102.163044 239.538174 102.520358 240.400808 103.156293 241.036742 
C 103.792228 241.672677 104.654861 242.029992 105.554209 242.029992 
z
" clip-path="url(#p2dad04a329)" style="fill: #e0b63e; fill-opacity: 0.72; stroke: #ffffff; stroke-opacity: 0.72"/>
    <path d="M 351.308176 83.778943 
C 352.207523 83.778943 353.070157 83.421628 353.706092 82.785694 
C 354.342026 82.149759 354.699341 81.287125 354.699341 80.387778 
C 354.699341 79.48843 354.342026 78.625797 353.706092 77.989862 
C 353.070157 77.353927 352.207523 76.996613 351.308176 76.996613 
C 350.408829 76.996613 349.546195 77.353927 348.91026 77.989862 
C 348.274326 78.625797 347.917011 79.48843 347.917011 80.387778 
C 347.917011 81.287125 348.274326 82.149759 348.91026 82.785694 
C 349.546195 83.421628 350.408829 83.778943 351.308176 83.778943 
z
" clip-path="url(#p2dad04a329)" style="fill: #e0b63e; fill-opacity: 0.72; stroke: #ffffff; stroke-opacity: 0.72"/>
    <path d="M 205.501224 234.364606 
C 206.400572 234.364606 207.263205 234.007292 207.89914 233.371357 
C 208.535075 232.735422 208.892389 231.872789 208.892389 230.973441 
C 208.892389 230.074094 208.535075 229.21146 207.89914 228.575525 
C 207.263205 227.939591 206.400572 227.582276 205.501224 227.582276 
C 204.601877 227.582276 203.739243 227.939591 203.103308 228.575525 
C 202.467374 229.21146 202.110059 230.074094 202.110059 230.973441 
C 202.110059 231.872789 202.467374 232.735422 203.103308 233.371357 
C 203.739243 234.007292 204.601877 234.364606 205.501224 234.364606 
z
" clip-path="url(#p2dad04a329)" style="fill: #e0b63e; fill-opacity: 0.72; stroke: #ffffff; stroke-opacity: 0.72"/>
    <path d="M 128.208629 224.89235 
C 129.107976 224.89235 129.97061 224.535036 130.606545 223.899101 
C 131.242479 223.263167 131.599794 222.400533 131.599794 221.501185 
C 131.599794 220.601838 131.242479 219.739204 130.606545 219.10327 
C 129.97061 218.467335 129.107976 218.11002 128.208629 218.11002 
C 127.309281 218.11002 126.446648 218.467335 125.810713 219.10327 
C 125.174778 219.739204 124.817464 220.601838 124.817464 221.501185 
C 124.817464 222.400533 125.174778 223.263167 125.810713 223.899101 
C 126.446648 224.535036 127.309281 224.89235 128.208629 224.89235 
z
" clip-path="url(#p2dad04a329)" style="fill: #e0b63e; fill-opacity: 0.72; stroke: #ffffff; stroke-opacity: 0.72"/>
    <path d="M 96.825429 180.670223 
C 97.724777 180.670223 98.58741 180.312909 99.223345 179.676974 
C 99.85928 179.041039 100.216594 178.178406 100.216594 177.279058 
C 100.216594 176.379711 99.85928 175.517077 99.223345 174.881143 
C 98.58741 174.245208 97.724777 173.887893 96.825429 173.887893 
C 95.926082 173.887893 95.063448 174.245208 94.427514 174.881143 
C 93.791579 175.517077 93.434264 176.379711 93.434264 177.279058 
C 93.434264 178.178406 93.791579 179.041039 94.427514 179.676974 
C 95.063448 180.312909 95.926082 180.670223 96.825429 180.670223 
z
" clip-path="url(#p2dad04a329)" style="fill: #e0b63e; fill-opacity: 0.72; stroke: #ffffff; stroke-opacity: 0.72"/>
    <path d="M 175.03649 281.720919 
C 175.935838 281.720919 176.798472 281.363604 177.434406 280.727669 
C 178.070341 280.091735 178.427655 279.229101 178.427655 278.329754 
C 178.427655 277.430406 178.070341 276.567773 177.434406 275.931838 
C 176.798472 275.295903 175.935838 274.938589 175.03649 274.938589 
C 174.137143 274.938589 173.274509 275.295903 172.638575 275.931838 
C 172.00264 276.567773 171.645325 277.430406 171.645325 278.329754 
C 171.645325 279.229101 172.00264 280.091735 172.638575 280.727669 
C 173.274509 281.363604 174.137143 281.720919 175.03649 281.720919 
z
" clip-path="url(#p2dad04a329)" style="fill: #e0b63e; fill-opacity: 0.72; stroke: #ffffff; stroke-opacity: 0.72"/>
    <path d="M 137.423173 233.810378 
C 138.322521 233.810378 139.185154 233.453064 139.821089 232.817129 
C 140.457024 232.181194 140.814338 231.318561 140.814338 230.419213 
C 140.814338 229.519866 140.457024 228.657232 139.821089 228.021298 
C 139.185154 227.385363 138.322521 227.028048 137.423173 227.028048 
C 136.523826 227.028048 135.661192 227.385363 135.025258 228.021298 
C 134.389323 228.657232 134.032008 229.519866 134.032008 230.419213 
C 134.032008 231.318561 134.389323 232.181194 135.025258 232.817129 
C 135.661192 233.453064 136.523826 233.810378 137.423173 233.810378 
z
" clip-path="url(#p2dad04a329)" style="fill: #e0b63e; fill-opacity: 0.72; stroke: #ffffff; stroke-opacity: 0.72"/>
    <path d="M 101.73586 184.238962 
C 102.635208 184.238962 103.497841 183.881648 104.133776 183.245713 
C 104.769711 182.609778 105.127025 181.747145 105.127025 180.847797 
C 105.127025 179.94845 104.769711 179.085816 104.133776 178.449881 
C 103.497841 177.813947 102.635208 177.456632 101.73586 177.456632 
C 100.836513 177.456632 99.973879 177.813947 99.337945 178.449881 
C 98.70201 179.085816 98.344695 179.94845 98.344695 180.847797 
C 98.344695 181.747145 98.70201 182.609778 99.337945 183.245713 
C 99.973879 183.881648 100.836513 184.238962 101.73586 184.238962 
z
" clip-path="url(#p2dad04a329)" style="fill: #e0b63e; fill-opacity: 0.72; stroke: #ffffff; stroke-opacity: 0.72"/>
    <path d="M 325.246457 127.202512 
C 326.145804 127.202512 327.008438 126.845198 327.644373 126.209263 
C 328.280307 125.573328 328.637622 124.710695 328.637622 123.811347 
C 328.637622 122.912 328.280307 122.049366 327.644373 121.413431 
C 327.008438 120.777497 326.145804 120.420182 325.246457 120.420182 
C 324.347109 120.420182 323.484476 120.777497 322.848541 121.413431 
C 322.212606 122.049366 321.855292 122.912 321.855292 123.811347 
C 321.855292 124.710695 322.212606 125.573328 322.848541 126.209263 
C 323.484476 126.845198 324.347109 127.202512 325.246457 127.202512 
z
" clip-path="url(#p2dad04a329)" style="fill: #e0b63e; fill-opacity: 0.72; stroke: #ffffff; stroke-opacity: 0.72"/>
    <path d="M 172.707229 226.031064 
C 173.606577 226.031064 174.46921 225.673749 175.105145 225.037815 
C 175.74108 224.40188 176.098394 223.539246 176.098394 222.639899 
C 176.098394 221.740551 175.74108 220.877918 175.105145 220.241983 
C 174.46921 219.606048 173.606577 219.248734 172.707229 219.248734 
C 171.807882 219.248734 170.945248 219.606048 170.309313 220.241983 
C 169.673379 220.877918 169.316064 221.740551 169.316064 222.639899 
C 169.316064 223.539246 169.673379 224.40188 170.309313 225.037815 
C 170.945248 225.673749 171.807882 226.031064 172.707229 226.031064 
z
" clip-path="url(#p2dad04a329)" style="fill: #e0b63e; fill-opacity: 0.72; stroke: #ffffff; stroke-opacity: 0.72"/>
    <path d="M 115.076146 228.54297 
C 115.975494 228.54297 116.838127 228.185656 117.474062 227.549721 
C 118.109997 226.913787 118.467311 226.051153 118.467311 225.151805 
C 118.467311 224.252458 118.109997 223.389824 117.474062 222.75389 
C 116.838127 222.117955 115.975494 221.76064 115.076146 221.76064 
C 114.176799 221.76064 113.314165 222.117955 112.678231 222.75389 
C 112.042296 223.389824 111.684981 224.252458 111.684981 225.151805 
C 111.684981 226.051153 112.042296 226.913787 112.678231 227.549721 
C 113.314165 228.185656 114.176799 228.54297 115.076146 228.54297 
z
" clip-path="url(#p2dad04a329)" style="fill: #e0b63e; fill-opacity: 0.72; stroke: #ffffff; stroke-opacity: 0.72"/>
    <path d="M 79.56475 221.943784 
C 80.464097 221.943784 81.326731 221.58647 81.962666 220.950535 
C 82.5986 220.314601 82.955915 219.451967 82.955915 218.55262 
C 82.955915 217.653272 82.5986 216.790638 81.962666 216.154704 
C 81.326731 215.518769 80.464097 215.161455 79.56475 215.161455 
C 78.665402 215.161455 77.802769 215.518769 77.166834 216.154704 
C 76.530899 216.790638 76.173585 217.653272 76.173585 218.55262 
C 76.173585 219.451967 76.530899 220.314601 77.166834 220.950535 
C 77.802769 221.58647 78.665402 221.943784 79.56475 221.943784 
z
" clip-path="url(#p2dad04a329)" style="fill: #e0b63e; fill-opacity: 0.72; stroke: #ffffff; stroke-opacity: 0.72"/>
    <path d="M 150.454761 180.929115 
C 151.354108 180.929115 152.216742 180.571801 152.852676 179.935866 
C 153.488611 179.299931 153.845926 178.437298 153.845926 177.53795 
C 153.845926 176.638603 153.488611 175.775969 152.852676 175.140034 
C 152.216742 174.5041 151.354108 174.146785 150.454761 174.146785 
C 149.555413 174.146785 148.69278 174.5041 148.056845 175.140034 
C 147.42091 175.775969 147.063596 176.638603 147.063596 177.53795 
C 147.063596 178.437298 147.42091 179.299931 148.056845 179.935866 
C 148.69278 180.571801 149.555413 180.929115 150.454761 180.929115 
z
" clip-path="url(#p2dad04a329)" style="fill: #e0b63e; fill-opacity: 0.72; stroke: #ffffff; stroke-opacity: 0.72"/>
    <path d="M 191.961747 93.873872 
C 194.442495 93.873872 196.821972 92.888261 198.576125 91.134107 
C 200.330279 89.379953 201.315891 87.000476 201.315891 84.519729 
C 201.315891 82.038981 200.330279 79.659504 198.576125 77.90535 
C 196.821972 76.151197 194.442495 75.165585 191.961747 75.165585 
C 189.480999 75.165585 187.101522 76.151197 185.347369 77.90535 
C 183.593215 79.659504 182.607604 82.038981 182.607604 84.519729 
C 182.607604 87.000476 183.593215 89.379953 185.347369 91.134107 
C 187.101522 92.888261 189.480999 93.873872 191.961747 93.873872 
z
" clip-path="url(#p2dad04a329)" style="fill: #e0b63e; fill-opacity: 0.72; stroke: #ffffff; stroke-opacity: 0.72"/>
    <path d="M 359.864536 349.57552 
C 360.763884 349.57552 361.626517 349.218206 362.262452 348.582271 
C 362.898387 347.946337 363.255701 347.083703 363.255701 346.184355 
C 363.255701 345.285008 362.898387 344.422374 362.262452 343.78644 
C 361.626517 343.150505 360.763884 342.79319 359.864536 342.79319 
C 358.965189 342.79319 358.102555 343.150505 357.466621 343.78644 
C 356.830686 344.422374 356.473371 345.285008 356.473371 346.184355 
C 356.473371 347.083703 356.830686 347.946337 357.466621 348.582271 
C 358.102555 349.218206 358.965189 349.57552 359.864536 349.57552 
z
" clip-path="url(#p2dad04a329)" style="fill: #e0b63e; fill-opacity: 0.72; stroke: #ffffff; stroke-opacity: 0.72"/>
    <path d="M 30.027273 188.252387 
C 30.92662 188.252387 31.789254 187.895073 32.425188 187.259138 
C 33.061123 186.623203 33.418438 185.76057 33.418438 184.861222 
C 33.418438 183.961875 33.061123 183.099241 32.425188 182.463306 
C 31.789254 181.827372 30.92662 181.470057 30.027273 181.470057 
C 29.127925 181.470057 28.265292 181.827372 27.629357 182.463306 
C 26.993422 183.099241 26.636108 183.961875 26.636108 184.861222 
C 26.636108 185.76057 26.993422 186.623203 27.629357 187.259138 
C 28.265292 187.895073 29.127925 188.252387 30.027273 188.252387 
z
" clip-path="url(#p2dad04a329)" style="fill: #e0b63e; fill-opacity: 0.72; stroke: #ffffff; stroke-opacity: 0.72"/>
    <path d="M 140.202181 245.734212 
C 141.101528 245.734212 141.964162 245.376898 142.600096 244.740963 
C 143.236031 244.105028 143.593346 243.242395 143.593346 242.343047 
C 143.593346 241.4437 143.236031 240.581066 142.600096 239.945132 
C 141.964162 239.309197 141.101528 238.951882 140.202181 238.951882 
C 139.302833 238.951882 138.440199 239.309197 137.804265 239.945132 
C 137.16833 240.581066 136.811016 241.4437 136.811016 242.343047 
C 136.811016 243.242395 137.16833 244.105028 137.804265 244.740963 
C 138.440199 245.376898 139.302833 245.734212 140.202181 245.734212 
z
" clip-path="url(#p2dad04a329)" style="fill: #e0b63e; fill-opacity: 0.72; stroke: #ffffff; stroke-opacity: 0.72"/>
    <path d="M 135.868504 115.304965 
C 136.767851 115.304965 137.630485 114.94765 138.26642 114.311715 
C 138.902354 113.675781 139.259669 112.813147 139.259669 111.9138 
C 139.259669 111.014452 138.902354 110.151819 138.26642 109.515884 
C 137.630485 108.879949 136.767851 108.522635 135.868504 108.522635 
C 134.969156 108.522635 134.106523 108.879949 133.470588 109.515884 
C 132.834653 110.151819 132.477339 111.014452 132.477339 111.9138 
C 132.477339 112.813147 132.834653 113.675781 133.470588 114.311715 
C 134.106523 114.94765 134.969156 115.304965 135.868504 115.304965 
z
" clip-path="url(#p2dad04a329)" style="fill: #e0b63e; fill-opacity: 0.72; stroke: #ffffff; stroke-opacity: 0.72"/>
   </g>
   <g id="patch_3">
    <path d="M 7.2 361.304355 
L 7.2 28.664355 
" style="fill: none; stroke: #cbd0d6; stroke-width: 1.1; stroke-linejoin: miter; stroke-linecap: square"/>
   </g>
   <g id="patch_4">
    <path d="M 7.2 361.304355 
L 509.4 361.304355 
" style="fill: none; stroke: #cbd0d6; stroke-width: 1.1; stroke-linejoin: miter; stroke-linecap: square"/>
   </g>
   <g id="text_2">
    <g id="patch_5">
     <path d="M 387.969301 76.520744 
L 541.204301 76.520744 
Q 543.636301 76.520744 543.636301 74.088744 
L 543.636301 66.956322 
Q 543.636301 64.524322 541.204301 64.524322 
L 387.969301 64.524322 
Q 385.537301 64.524322 385.537301 66.956322 
L 385.537301 74.088744 
Q 385.537301 76.520744 387.969301 76.520744 
z
" style="fill: #ffffff; opacity: 0.95; stroke: #e9ecef; stroke-width: 0.9; stroke-linejoin: miter"/>
    </g>
    <text style="font-size: 7.6px; font-family: 'Arial'; text-anchor: start; fill: #22262b" x="387.969301" y="72.48933" transform="rotate(-0 387.969301 72.48933)">"More detailed and specific, which I liked. I…"</text>
   </g>
   <g id="text_3">
    <g id="patch_6">
     <path d="M 367.39612 40.18564 
L 534.14012 40.18564 
Q 536.57212 40.18564 536.57212 37.75364 
L 536.57212 30.621219 
Q 536.57212 28.189219 534.14012 28.189219 
L 367.39612 28.189219 
Q 364.96412 28.189219 364.96412 30.621219 
L 364.96412 37.75364 
Q 364.96412 40.18564 367.39612 40.18564 
z
" style="fill: #ffffff; opacity: 0.95; stroke: #e9ecef; stroke-width: 0.9; stroke-linejoin: miter"/>
    </g>
    <text style="font-size: 7.6px; font-family: 'Arial'; text-anchor: start; fill: #22262b" x="367.39612" y="36.154226" transform="rotate(-0 367.39612 36.154226)">"I felt there was a more comprehensive covera…"</text>
   </g>
   <g id="text_4">
    <g id="patch_7">
     <path d="M 370.364287 116.317903 
L 532.466349 116.317903 
Q 534.898349 116.317903 534.898349 113.885903 
L 534.898349 106.753333 
Q 534.898349 104.321333 532.466349 104.321333 
L 370.364287 104.321333 
Q 367.932287 104.321333 367.932287 106.753333 
L 367.932287 113.885903 
Q 367.932287 116.317903 370.364287 116.317903 
z
" style="fill: #ffffff; opacity: 0.95; stroke: #e9ecef; stroke-width: 0.9; stroke-linejoin: miter"/>
    </g>
    <text style="font-size: 7.6px; font-family: 'Arial'; text-anchor: start; fill: #22262b" x="370.364287" y="112.286341" transform="rotate(-0 370.364287 112.286341)">"The most important thing was that this one s…"</text>
   </g>
   <g id="text_5">
    <g id="patch_8">
     <path d="M 366.308368 57.898141 
L 521.243868 57.898141 
Q 523.675868 57.898141 523.675868 55.466141 
L 523.675868 48.33372 
Q 523.675868 45.90172 521.243868 45.90172 
L 366.308368 45.90172 
Q 363.876368 45.90172 363.876368 48.33372 
L 363.876368 55.466141 
Q 363.876368 57.898141 366.308368 57.898141 
z
" style="fill: #ffffff; opacity: 0.95; stroke: #e9ecef; stroke-width: 0.9; stroke-linejoin: miter"/>
    </g>
    <text style="font-size: 7.6px; font-family: 'Arial'; text-anchor: start; fill: #22262b" x="366.308368" y="53.866727" transform="rotate(-0 366.308368 53.866727)">"For the nature of the question, I liked how …"</text>
   </g>
   <g id="text_6">
    <g id="patch_9">
     <path d="M 486.571612 163.470853 
L 649.945487 163.470853 
Q 652.377487 163.470853 652.377487 161.038853 
L 652.377487 153.906283 
Q 652.377487 151.474283 649.945487 151.474283 
L 486.571612 151.474283 
Q 484.139612 151.474283 484.139612 153.906283 
L 484.139612 161.038853 
Q 484.139612 163.470853 486.571612 163.470853 
z
" style="fill: #ffffff; opacity: 0.95; stroke: #e9ecef; stroke-width: 0.9; stroke-linejoin: miter"/>
    </g>
    <text style="font-size: 7.6px; font-family: 'Arial'; text-anchor: start; fill: #22262b" x="486.571612" y="159.43929" transform="rotate(-0 486.571612 159.43929)">"There were definitely fewer unsupported or s…"</text>
   </g>
   <g id="text_7">
    <g id="patch_10">
     <path d="M 201.961747 78.551291 
L 346.304747 78.551291 
Q 348.736747 78.551291 348.736747 76.119291 
L 348.736747 68.986721 
Q 348.736747 66.554721 346.304747 66.554721 
L 201.961747 66.554721 
Q 199.529747 66.554721 199.529747 68.986721 
L 199.529747 76.119291 
Q 199.529747 78.551291 201.961747 78.551291 
z
" style="fill: #ffffff; opacity: 0.95; stroke: #e9ecef; stroke-width: 0.9; stroke-linejoin: miter"/>
    </g>
    <text style="font-size: 7.6px; font-family: 'Arial'; text-anchor: start; fill: #22262b" x="201.961747" y="74.519729" transform="rotate(-0 201.961747 74.519729)">"This system was much more to-the-point."</text>
   </g>
   <g id="text_8">
    <g id="patch_11">
     <path d="M 476.076072 241.681718 
L 630.170822 241.681718 
Q 632.602822 241.681718 632.602822 239.249718 
L 632.602822 232.117296 
Q 632.602822 229.685296 630.170822 229.685296 
L 476.076072 229.685296 
Q 473.644072 229.685296 473.644072 232.117296 
L 473.644072 239.249718 
Q 473.644072 241.681718 476.076072 241.681718 
z
" style="fill: #ffffff; opacity: 0.95; stroke: #e9ecef; stroke-width: 0.9; stroke-linejoin: miter"/>
    </g>
    <text style="font-size: 7.6px; font-family: 'Arial'; text-anchor: start; fill: #22262b" x="476.076072" y="237.650304" transform="rotate(-0 476.076072 237.650304)">"Provides citations both in-line and at the b…"</text>
   </g>
   <g id="text_9">
    <text style="font-weight: 700; font-size: 13px; font-family: 'Arial'; text-anchor: start; fill: #22262b" x="7.2" y="16.664355" transform="rotate(-0 7.2 16.664355)">Semantic map of the reasons</text>
   </g>
   <g id="legend_1">
    <g id="PathCollection_3">
     <defs>
      <path id="m75d6fa8c90" d="M 0 9.565563 
C 2.536817 9.565563 4.970074 8.557675 6.763875 6.763875 
C 8.557675 4.970074 9.565563 2.536817 9.565563 0 
C 9.565563 -2.536817 8.557675 -4.970074 6.763875 -6.763875 
C 4.970074 -8.557675 2.536817 -9.565563 0 -9.565563 
C -2.536817 -9.565563 -4.970074 -8.557675 -6.763875 -6.763875 
C -8.557675 -4.970074 -9.565563 -2.536817 -9.565563 0 
C -9.565563 2.536817 -8.557675 4.970074 -6.763875 6.763875 
C -4.970074 8.557675 -2.536817 9.565563 0 9.565563 
z
" style="stroke: #ffffff; stroke-opacity: 0.72"/>
     </defs>
     <g>
      <use xlink:href="#m75d6fa8c90" x="25.25" y="41.636865" style="fill: #4c72b0; fill-opacity: 0.72; stroke: #ffffff; stroke-opacity: 0.72"/>
     </g>
    </g>
    <g id="text_10">
     <text style="font-size: 9.5px; font-family: 'Arial'; text-anchor: start" x="39.5" y="44.130615" transform="rotate(-0 39.5 44.130615)">Eubiota (agent)</text>
    </g>
    <g id="PathCollection_4">
     <defs>
      <path id="mb58a71d88e" d="M 0 7.842194 
C 2.079774 7.842194 4.074646 7.015891 5.545268 5.545268 
C 7.015891 4.074646 7.842194 2.079774 7.842194 0 
C 7.842194 -2.079774 7.015891 -4.074646 5.545268 -5.545268 
C 4.074646 -7.015891 2.079774 -7.842194 0 -7.842194 
C -2.079774 -7.842194 -4.074646 -7.015891 -5.545268 -5.545268 
C -7.015891 -4.074646 -7.842194 -2.079774 -7.842194 0 
C -7.842194 2.079774 -7.015891 4.074646 -5.545268 5.545268 
C -4.074646 7.015891 -2.079774 7.842194 0 7.842194 
z
" style="stroke: #ffffff; stroke-opacity: 0.72"/>
     </defs>
     <g>
      <use xlink:href="#mb58a71d88e" x="25.25" y="55.302578" style="fill: #e0b63e; fill-opacity: 0.72; stroke: #ffffff; stroke-opacity: 0.72"/>
     </g>
    </g>
    <g id="text_11">
     <text style="font-size: 9.5px; font-family: 'Arial'; text-anchor: start" x="39.5" y="57.796328" transform="rotate(-0 39.5 57.796328)">Chatbot (LLM)</text>
    </g>
   </g>
  </g>
 </g>
 <defs>
  <clipPath id="p2dad04a329">
   <rect x="7.2" y="28.664355" width="502.2" height="332.64"/>
  </clipPath>
 </defs>
</svg>
